<?xml version="1.0" standalone="no"?>
<!DOCTYPE svg PUBLIC "-//W3C//DTD SVG 20010904//EN"
 "http://www.w3.org/TR/2001/REC-SVG-20010904/DTD/svg10.dtd">
<svg version="1.0" xmlns="http://www.w3.org/2000/svg"
 width="240.000000pt" height="240.000000pt" viewBox="0 0 240.000000 240.000000"
 preserveAspectRatio="xMidYMid meet">
<metadata>
Provincia Autonoma di Trento
</metadata>
<g transform="translate(0.000000,240.000000) scale(0.100000,-0.100000)"
fill="#000000" stroke="none">
<path d="M1140 2388 c-19 -5 -40 -14 -46 -19 -15 -12 -23 -54 -13 -70 4 -7 -1
-21 -12 -32 -20 -22 -25 -71 -10 -109 15 -39 58 -78 86 -78 l26 0 -22 -31 -22
-32 -9 24 c-11 29 -25 39 -59 39 -31 0 -49 -17 -49 -47 0 -27 -8 -28 -35 -5
-48 40 -63 71 -58 112 7 49 -8 70 -51 70 -39 0 -56 -15 -56 -51 0 -27 22 -59
40 -59 13 0 23 -39 16 -65 -6 -23 -7 -24 -35 -8 -27 16 -30 16 -55 0 -17 -11
-26 -27 -26 -43 0 -22 -2 -23 -21 -14 -16 9 -18 14 -9 25 7 9 9 27 5 47 -10
43 -43 108 -55 108 -6 0 -10 7 -10 16 0 12 -6 15 -25 10 -18 -5 -25 -2 -25 7
0 8 -9 22 -21 33 -20 18 -22 18 -34 1 -7 -10 -26 -17 -47 -17 -37 0 -51 -10
-62 -47 -5 -17 -1 -29 18 -48 30 -30 56 -33 56 -6 0 10 6 21 14 24 10 4 25
-17 51 -73 23 -47 54 -95 81 -121 24 -24 44 -51 44 -61 0 -10 6 -21 14 -24 8
-3 11 -14 9 -28 -3 -13 0 -27 6 -30 7 -5 7 -14 -1 -32 -9 -20 -9 -28 3 -39 28
-29 157 -46 374 -52 366 -9 598 30 559 94 -12 20 -7 80 7 89 5 3 9 14 9 24 0
10 15 31 33 47 38 31 77 82 81 104 3 22 44 97 57 104 6 4 13 -2 16 -14 11 -42
83 -16 83 30 0 11 -11 31 -24 44 -29 29 -98 32 -136 5 -14 -9 -37 -20 -52 -24
-16 -3 -28 -10 -28 -15 0 -5 -6 -16 -13 -23 -19 -20 -39 -118 -27 -133 5 -6 7
-15 4 -18 -4 -4 -14 8 -23 26 -20 41 -71 50 -94 17 -13 -18 -15 -19 -21 -5
-15 39 -6 83 19 99 29 19 33 56 9 80 -18 19 -65 21 -82 4 -15 -15 -16 -60 -1
-75 15 -15 -1 -42 -47 -83 l-37 -32 -13 31 c-21 51 -104 51 -104 0 0 -25 -12
-18 -40 21 l-21 30 27 -10 c25 -10 31 -8 60 25 31 35 44 71 44 121 0 13 -4 24
-9 24 -12 0 -25 41 -29 96 -2 14 -15 25 -49 37 -53 19 -81 20 -133 5z"/>
<path d="M567 1543 c-18 -30 -40 -247 -40 -388 0 -140 4 -173 27 -263 76 -295
226 -545 437 -729 66 -58 167 -128 200 -138 38 -12 222 133 340 268 253 290
376 663 340 1037 -6 66 -16 142 -22 170 l-11 50 -633 0 c-349 0 -636 -3 -638
-7z"/>
</g>
</svg>
