<?xml version="1.0" standalone="no"?>
<!DOCTYPE svg PUBLIC "-//W3C//DTD SVG 1.1//EN" "http://www.w3.org/Graphics/SVG/1.1/DTD/svg11.dtd" >
<svg>
<metadata>
Created by FontForge 20090914 at Fri Jun 24 09:34:02 2016
 By www-data
Copyright (c) 1985, 1987, 1994 Adobe Systems Incorporated.  All Rights Reserved.Helvetica is a trademark of Linotype-Hell AG and/or its subsidiaries.
</metadata>
<defs>
<font id="Helvetica-Black" horiz-adv-x="667" >
  <font-face 
    font-family="Helvetica-Black"
    font-weight="900"
    font-stretch="normal"
    units-per-em="1000"
    panose-1="2 11 10 0 0 0 0 0 0 0"
    ascent="800"
    descent="-200"
    x-height="524"
    cap-height="720"
    bbox="-36 -250 1007 1013"
    underline-thickness="50"
    underline-position="-50"
    unicode-range="U+0020-U+2122"
  />
<missing-glyph horiz-adv-x="502" 
d="M-1 0h500v500h-500v-500zM9 10v480h480v-480h-480z" />
    <glyph glyph-name=".notdef" horiz-adv-x="502" 
d="M-1 0h500v500h-500v-500zM9 10v480h480v-480h-480z" />
    <glyph glyph-name="space" unicode=" " horiz-adv-x="333" 
 />
    <glyph glyph-name="exclam" unicode="!" horiz-adv-x="333" 
d="M108 264h113l52 278v178h-213v-178zM267 0v194h-206v-194h206z" />
    <glyph glyph-name="quotedbl" unicode="&#x22;" horiz-adv-x="500" 
d="M401 449v271h-119v-271h119zM218 449v271h-119v-271h119z" />
    <glyph glyph-name="numbersign" unicode="#" horiz-adv-x="660" 
d="M550 315h-89l12 88h103v93h-90l30 209h-90l-29 -209h-86l29 209h-87l-30 -209h-111v-93h99l-13 -88h-114v-93h100l-31 -222h88l32 222h85l-31 -222h89l32 222h102v93zM384 403l-13 -88h-85l12 88h86z" />
    <glyph glyph-name="dollar" unicode="$" 
d="M286 455c-4.66699 2 -9.33203 3.66699 -13.999 5c-19.333 7.33301 -34.333 15.333 -45 24s-16 22 -16 40c0 17.333 8.16699 31.833 24.5 43.5s33.166 17.5 50.499 17.5v-130zM369.002 260c26 -5.33301 47 -14.668 63 -28.001s24 -30.666 24 -51.999c0 -20 -9 -36 -27 -48
s-38 -18 -60 -18v146zM286.002 714.998c-35.333 -5.33301 -67.5 -12.6699 -96.5 -22.0029s-55 -22.166 -78 -38.499s-41.167 -37.666 -54.5 -63.999s-20 -58.166 -20 -95.499c0 -34 6.33301 -62.833 19 -86.5s29.667 -43 51 -58s43.5 -27 66.5 -36s53.833 -19.5 92.5 -31.5
l20 -6v-157c-26 5.33301 -46.167 17 -60.5 35s-21.5 41 -21.5 69h-181c0.666992 -74.667 25.667 -132.5 75 -173.5s112 -62.833 188 -65.5v-97h83v97c38 1.33301 73 6.16602 105 14.499s60.167 21.333 84.5 39s43.333 40.667 57 69s20.5 62.166 20.5 101.499
c0 36 -7.5 66.667 -22.5 92s-35 46.333 -60 63s-51.5 30.334 -79.5 41.001s-63 22.334 -105 35.001v0v139c24.667 0 44.5 -7.83301 59.5 -23.5s23.167 -34.167 24.5 -55.5h173c0 37.333 -7 69.333 -21 96s-33 48.5 -57 65.5s-51.167 29.667 -81.5 38
s-62.833 13.5 -97.5 15.5v62h-83v-62z" />
    <glyph glyph-name="percent" unicode="%" horiz-adv-x="1000" 
d="M553 195c0 -29.333 5.8291 -57.333 17.4961 -84s27.834 -50 48.501 -70s44.334 -35.667 71.001 -47s54.667 -17 84 -17c30 0 58.333 5.66699 85 17s50 27 70 47s35.667 43.167 47 69.5s17 54.5 17 84.5c0 29.333 -5.66699 57.5 -17 84.5s-27.166 50.833 -47.499 71.5
s-43.666 36.667 -69.999 48s-54.5 17 -84.5 17c-29.333 0 -57.5 -5.66699 -84.5 -17s-50.667 -27.333 -71 -48s-36.333 -44.5 -48 -71.5s-17.5 -55.167 -17.5 -84.5zM687.996 196c0 23.333 8.5 43.333 25.5 60s37.167 25 60.5 25c22.667 0 42.334 -8.5 59.001 -25.5
s25 -36.833 25 -59.5s-8.33301 -42.334 -25 -59.001s-36.334 -25 -59.001 -25c-22 0 -41.833 8.33301 -59.5 25s-26.5 36.334 -26.5 59.001zM226.996 302c30 0 58.333 5.66602 85 16.999s50.167 27.166 70.5 47.499s36.166 43.833 47.499 70.5s17 55 17 85
s-5.66699 58.333 -17 85s-27.166 50 -47.499 70s-44 35.667 -71 47s-55.167 17 -84.5 17s-57.5 -5.66699 -84.5 -17s-50.833 -27.166 -71.5 -47.499s-36.667 -43.833 -48 -70.5s-17 -54.667 -17 -84c0 -30 5.83301 -58.333 17.5 -85s27.667 -50.167 48 -70.5
s43.833 -36.166 70.5 -47.499s55 -17 85 -17zM226.996 605.999c22.667 0 42.5 -8.33301 59.5 -25s25.5 -36.334 25.5 -59.001s-8.5 -42.5 -25.5 -59.5s-36.833 -25.5 -59.5 -25.5s-42.667 8.5 -60 25.5s-26 36.833 -26 59.5s8.66699 42.334 26 59.001s37.333 25 60 25z
M760.996 746.999h-101l-424 -778h101z" />
    <glyph glyph-name="ampersand" unicode="&#x26;" horiz-adv-x="889" 
d="M384 595c12.667 0 25 -2.66699 37 -8s20.333 -13.333 25 -24c2.66699 -9.33301 4 -18 4 -26c0 -18.667 -6.5 -33.834 -19.5 -45.501s-31.5 -23.167 -55.5 -34.5c-19.333 13.333 -34.333 26.5 -45 39.5s-16 27.833 -16 44.5c0 18.667 6.66699 32.334 20 41.001
s30 13 50 13zM594 0l249.999 -0.00488281l-164 169c44 46.667 84.333 105 121 175h-190c-12.667 -24 -28.334 -44 -47.001 -60l-62 64c38 20.667 67 45.834 87 75.501s30 65.167 30 106.5c0 28.667 -6.16699 54.667 -18.5 78s-29.333 43.333 -51 60s-47.167 29.5 -76.5 38.5
s-60.666 13.5 -93.999 13.5c-30 0 -59.5 -3.16699 -88.5 -9.5s-55.167 -16.666 -78.5 -30.999s-42.166 -33.166 -56.499 -56.499s-21.5 -51 -21.5 -83c0 -26 5.33301 -49.667 16 -71s26 -42.666 46 -63.999c-47.333 -24 -84.333 -54.5 -111 -91.5s-40 -81.167 -40 -132.5
c0 -33.333 6.83301 -62.666 20.5 -87.999s32.334 -46.333 56.001 -63s50.667 -29 81 -37s62.5 -12 96.5 -12c44.667 0 89.167 7.83301 133.5 23.5s79.166 34.5 104.499 56.5zM415.999 187.995c4.66699 -4.66699 7 -7.99902 7 -9.99902s-4.33301 -5 -13 -9
c-6 -4 -11 -7 -15 -9c-10.667 -6.66699 -24 -12.667 -40 -18s-29.333 -8 -40 -8c-20.667 0 -37.5 5.66699 -50.5 17s-19.5 27.666 -19.5 48.999c0 18.667 7 34.5 21 47.5s33 25.833 57 38.5z" />
    <glyph glyph-name="quotesingle" unicode="'" horiz-adv-x="278" 
d="M198 449v271h-119v-271h119z" />
    <glyph glyph-name="parenleft" unicode="(" horiz-adv-x="389" 
d="M331 -178c-29.333 75.333 -51.832 150.668 -67.499 226.001s-23.5 150.666 -23.5 225.999c0 72 8.33301 145.167 25 219.5s39.667 149.833 69 226.5h-178l-6 -14c-32.667 -80.667 -58 -153 -76 -217s-27 -134.667 -27 -212c0 -92.667 10.167 -176.5 30.5 -251.5
s46.166 -142.833 77.499 -203.5h176z" />
    <glyph glyph-name="parenright" unicode=")" horiz-adv-x="389" 
d="M58 720c29.333 -75.333 51.832 -150.668 67.499 -226.001s23.5 -150.666 23.5 -225.999c0 -72 -8.33301 -145.167 -25 -219.5s-39.667 -149.833 -69 -226.5h178l6 14c32.667 80.667 58 153 76 217s27 134.667 27 212c0 92.667 -10.167 176.5 -30.5 251.5
s-46.166 142.833 -77.499 203.5h-176z" />
    <glyph glyph-name="asterisk" unicode="*" horiz-adv-x="556" 
d="M91 627l-37 -110l138 -37l-91 -117l92 -68l87 124l87 -124l91 70l-95 117l139 47l-38 103l-132 -51v139h-108v-139z" />
    <glyph glyph-name="plus" unicode="+" horiz-adv-x="660" 
d="M272 314h-194v-116h194v-198h116v198h194v116h-194v191h-116v-191z" />
    <glyph glyph-name="comma" unicode="," horiz-adv-x="333" 
d="M58 -176c66.667 3.33301 118.667 22.5 156 57.5s56 85.167 56 150.5v174h-212v-206h97c-2 -25.333 -11 -45.333 -27 -60c-16.667 -15.333 -40 -25 -70 -29v-87z" />
    <glyph glyph-name="hyphen" unicode="-" horiz-adv-x="333" 
d="M300 165v182h-268v-182h268z" />
    <glyph glyph-name="period" unicode="." horiz-adv-x="333" 
d="M272 0v206h-212v-206h212z" />
    <glyph glyph-name="slash" unicode="/" horiz-adv-x="278" 
d="M184 720l-216 -810h126l216 810h-126z" />
    <glyph glyph-name="zero" unicode="0" 
d="M334 141c-37.333 0 -63.001 17.499 -77.001 52.499s-21 86.167 -21 153.5c0 24.667 0.833008 47.834 2.5 69.501s5.5 43.5 11.5 65.5s15.667 40.333 29 55s31 22 53 22c22.667 0 40.834 -6.16699 54.501 -18.5s23.667 -28.5 30 -48.5s10.333 -41.333 12 -64
s2.5 -49 2.5 -79c0 -64.667 -7.5 -115.5 -22.5 -152.5s-39.833 -55.5 -74.5 -55.5zM27.999 358.999c0 -52.667 5.5 -101.501 16.5 -146.501s28.5 -84.5 52.5 -118.5s55.667 -60.667 95 -80s86.666 -29 141.999 -29s102.666 9.83301 141.999 29.5s70.833 46.667 94.5 81
s41 73.833 52 118.5s16.5 93.334 16.5 146.001c0 114.667 -27.333 202.5 -82 263.5s-129 91.5 -223 91.5c-42 0 -81.167 -6.66699 -117.5 -20s-68.666 -34.166 -96.999 -62.499s-50.666 -65.333 -66.999 -111s-24.5 -99.834 -24.5 -162.501z" />
    <glyph glyph-name="one" unicode="1" 
d="M469 715l-158 -0.000976562c-10.667 -58 -34 -99.167 -70 -123.5s-83.667 -37.166 -143 -38.499v-142h163v-411h208v715z" />
    <glyph glyph-name="two" unicode="2" 
d="M649 0l0.00195312 170h-327c14 10 39 25.333 75 46c30 16.667 52.333 29.667 67 39l16 10c28 17.333 51 32.333 69 45s34.833 27.334 50.5 44.001s28.167 36 37.5 58s14 47 14 75c0 39.333 -7.5 73.666 -22.5 102.999s-35.833 53.166 -62.5 71.499
s-56.834 31.833 -90.501 40.5s-69.5 13 -107.5 13c-94.667 0 -167.834 -23.5 -219.501 -70.5s-78.167 -120.5 -79.5 -220.5h187c0 40 8 72.5 24 97.5s42 37.5 78 37.5c22.667 0 42.5 -6.5 59.5 -19.5s25.5 -30.167 25.5 -51.5c0 -32 -12.167 -60 -36.5 -84
s-62.5 -53 -114.5 -87c-34 -22 -62.833 -41.667 -86.5 -59s-45.5 -36.666 -65.5 -57.999c-28 -29.333 -49 -59.5 -63 -90.5s-21 -67.5 -21 -109.5h593z" />
    <glyph glyph-name="three" unicode="3" 
d="M35 245c0 -85.333 26.1689 -150.003 78.502 -194.003s121.166 -66 206.499 -66c96.667 0 172.834 21.167 228.501 63.5s83.5 103.5 83.5 183.5c0 34.667 -8.83301 64.667 -26.5 90s-42.5 44.333 -74.5 57c54.667 26.667 82 73 82 139c0 60 -24.333 107.833 -73 143.5
s-114.667 53.5 -198 53.5c-38 0 -73.667 -4.5 -107 -13.5s-63 -23 -89 -42s-46.833 -43.167 -62.5 -72.5s-24.5 -63.666 -26.5 -102.999h188c2.66699 24.667 12.167 43.334 28.5 56.001s37.166 19 62.499 19c23.333 0 42.833 -5.16699 58.5 -15.5s23.5 -26.166 23.5 -47.499
c0 -26 -10.333 -44.667 -31 -56s-45.334 -17 -74.001 -17c-2.66699 0 -6 0.333008 -10 1h-9v-123c19.333 0 36 -0.666992 50 -2s27.167 -4.5 39.5 -9.5s22.166 -12.833 29.499 -23.5s11 -25 11 -43c0 -22 -8.16699 -41.167 -24.5 -57.5s-39.166 -24.5 -68.499 -24.5
c-32.667 0 -57.667 9.33301 -75 28c-16.667 18 -25 43.333 -25 76h-196z" />
    <glyph glyph-name="four" unicode="4" 
d="M25 147h325v-147h198v147h88v155h-88v403h-194l-329 -391v-167zM350 517v-215h-168z" />
    <glyph glyph-name="five" unicode="5" 
d="M54 304l196 -7c7.33301 14 18.666 24 33.999 30s32 9 50 9c30 0 52.667 -9.33301 68 -28s23 -43.334 23 -74.001c0 -26.667 -9.33301 -48.834 -28 -66.501s-43 -26.5 -73 -26.5c-20 0 -38.5 5 -55.5 15s-28.5 24 -34.5 42c0 0.666992 -0.333008 2 -1 4
c-0.666992 1.33301 -1 2.33301 -1 3l-209 -21c20 -65.333 54.833 -114.833 104.5 -148.5s112.834 -50.5 189.501 -50.5c42.667 0 82.667 4.5 120 13.5s70.833 23.667 100.5 44s53 47.333 70 81s25.5 73.834 25.5 120.501c0 34.667 -6 65.834 -18 93.501s-29 51.167 -51 70.5
c-44.667 39.333 -101.667 59 -171 59c-30 0 -56.667 -2.66699 -80 -8s-45.333 -15.333 -66 -30l23 106h306v170h-452z" />
    <glyph glyph-name="six" unicode="6" 
d="M344 326c26 0 47.167 -8.66797 63.5 -26.001s24.5 -40 24.5 -68c0 -30.667 -7.83301 -54.667 -23.5 -72s-38.5 -26 -68.5 -26c-25.333 0 -47.333 8.83301 -66 26.5s-28 39.167 -28 64.5c0 29.333 8 53.333 24 72s40.667 28.334 74 29.001zM623 528.999
c-7.33301 34.667 -20 64 -38 88s-40 43.167 -66 57.5s-54.5 24.666 -85.5 30.999s-63.833 9.5 -98.5 9.5c-48 0 -91.167 -8.66699 -129.5 -26s-70.833 -42 -97.5 -74s-46.834 -70.333 -60.501 -115s-20.5 -94 -20.5 -148c0 -124.667 28.667 -217 86 -277s139 -90 245 -90
c40.667 0 78 5 112 15s63.833 25.333 89.5 46s45.5 46.667 59.5 78s21 68 21 110c0 26.667 -4.83301 53.334 -14.5 80.001s-24.334 51.167 -44.001 73.5s-44.667 40.333 -75 54s-65.166 20.5 -104.499 20.5c-34 0 -63.167 -3.66699 -87.5 -11
s-50.166 -20.666 -77.499 -39.999c0 49.333 9 88.666 27 117.999s45 44 81 44c21.333 0 39.333 -4.66699 54 -14s24.667 -23.333 30 -42z" />
    <glyph glyph-name="seven" unicode="7" 
d="M418 535c-66 -69.333 -120.332 -148.001 -162.999 -236.001s-69.334 -187.667 -80.001 -299h216c2 58 9.16699 114.5 21.5 169.5s28.833 106.333 49.5 154s44.667 90.334 72 128.001s57 69.5 89 95.5v158h-567v-170h362z" />
    <glyph glyph-name="eight" unicode="8" 
d="M360 135c-8.66699 -1.33301 -17.332 -2 -25.999 -2c-27.333 0 -50.333 7.33301 -69 22s-28 35.667 -28 63c0 30 8.83301 52.833 26.5 68.5s41.5 23.5 71.5 23.5c28 0 50.667 -8.16699 68 -24.5s26 -38.5 26 -66.5c0 -23.333 -5.83301 -42.5 -17.5 -57.5
s-28.834 -23.833 -51.501 -26.5zM332.002 423c-25.333 0 -46.334 6.00098 -63.001 18.001s-25 30.333 -25 55c0 25.333 8.33301 44.666 25 57.999s38.334 20 65.001 20c24.667 0 45.167 -6.83301 61.5 -20.5s24.5 -32.167 24.5 -55.5c0 -24 -8.5 -42.5 -25.5 -55.5
s-37.833 -19.5 -62.5 -19.5zM143.001 369.001c-38 -18 -66.501 -39.1699 -85.501 -63.5029s-28.5 -56.5 -28.5 -96.5c0 -37.333 7.83301 -70.166 23.5 -98.499s37.667 -51.833 66 -70.5s60.833 -32.5 97.5 -41.5s76 -13.5 118 -13.5c44 0 84.667 5 122 15
s69.333 24.667 96 44c56.667 40 85 95 85 165c0 40.667 -10 74.667 -30 102s-49.333 48.333 -88 63c32 12.667 55.5 31.334 70.5 56.001s22.5 54.667 22.5 90c0 28 -6.5 54 -19.5 78s-31.667 44.667 -56 62s-53.166 30.833 -86.499 40.5s-69.666 14.5 -108.999 14.5
c-38.667 0 -75.334 -4 -110.001 -12s-65.5 -20.333 -92.5 -37s-48.167 -37.667 -63.5 -63s-23 -54.333 -23 -87c0 -40 7.33301 -70.167 22 -90.5s37.667 -39.166 69 -56.499z" />
    <glyph glyph-name="nine" unicode="9" 
d="M321 375c-26 0 -47.167 8.66797 -63.5 26.001s-24.5 40 -24.5 68c0 30.667 7.83301 54.667 23.5 72s38.5 26 68.5 26c25.333 0 47.333 -8.83301 66 -26.5s28 -39.167 28 -64.5c0 -29.333 -7.83301 -53.333 -23.5 -72s-40.5 -28.334 -74.5 -29.001zM42 171.001
c7.33301 -34.667 20.001 -64.001 38.001 -88.001s40 -43.167 66 -57.5s54.5 -24.666 85.5 -30.999s63.833 -9.5 98.5 -9.5c48 0 91.167 8.66699 129.5 26s70.833 42 97.5 74s46.834 70.333 60.501 115s20.5 94 20.5 148c0 124.667 -28.667 217 -86 277s-139 90 -245 90
c-40.667 0 -78 -5 -112 -15s-63.833 -25.333 -89.5 -46s-45.5 -46.667 -59.5 -78s-21 -68 -21 -110c0 -26 4.83301 -52.5 14.5 -79.5s24.5 -51.667 44.5 -74s45 -40.333 75 -54s64.667 -20.5 104 -20.5c34 0 63.167 3.66699 87.5 11s50.166 20.666 77.499 39.999
c0 -49.333 -8.83301 -88.666 -26.5 -117.999s-44.834 -44 -81.501 -44c-21.333 0 -39.333 4.66699 -54 14s-24.667 23.333 -30 42z" />
    <glyph glyph-name="colon" unicode=":" horiz-adv-x="333" 
d="M272 0v206h-212v-206h212zM272 318v206h-212v-206h212z" />
    <glyph glyph-name="semicolon" unicode=";" horiz-adv-x="333" 
d="M58 206v-206h97c-2 -25.333 -11 -45.333 -27 -60c-16.667 -15.333 -40 -25 -70 -29v-87c66.667 3.33301 118.667 22.5 156 57.5s56 85.167 56 150.5v174h-212zM270 318v206h-212v-206h212z" />
    <glyph glyph-name="less" unicode="&#x3c;" horiz-adv-x="660" 
d="M584 108l-356 146l356 150v128l-509 -227v-99l509 -226v128z" />
    <glyph glyph-name="equal" unicode="=" horiz-adv-x="660" 
d="M582 412h-504v-116h504v116zM582 216h-504v-116h504v116z" />
    <glyph glyph-name="greater" unicode="&#x3e;" horiz-adv-x="660" 
d="M74 108v-128l509 226v99l-509 227v-128l356 -150z" />
    <glyph glyph-name="question" unicode="?" horiz-adv-x="611" 
d="M387 269c0 2 -0.335938 4.66992 -1.00293 8.00293v8c0 22 6.66699 39.5 20 52.5s34.333 27.5 63 43.5c17.333 10 31.833 18.833 43.5 26.5s22.834 17.334 33.501 29.001s19.167 25.667 25.5 42s9.5 35.166 9.5 56.499c0 65.333 -25 115.666 -75 150.999s-115 53 -195 53
c-37.333 0 -72.666 -4.66699 -105.999 -14s-62.666 -23.333 -87.999 -42c-26.667 -20 -47.834 -44.833 -63.501 -74.5s-24.5 -63.834 -26.5 -102.501h207c0 26.667 5.16699 47.167 15.5 61.5s26.833 21.5 49.5 21.5c20.667 0 38.167 -4.66699 52.5 -14s21.5 -24 21.5 -44
c0 -17.333 -4.83301 -30.333 -14.5 -39s-25.5 -17.667 -47.5 -27c-16 -8 -29.833 -15.333 -41.5 -22s-22.667 -16 -33 -28s-18.666 -27.833 -24.999 -47.5s-9.5 -43.834 -9.5 -72.501c0 -2.66699 0.333008 -6.66699 1 -12v-14h184zM191.997 194.003v-194h206v194h-206z" />
    <glyph glyph-name="at" unicode="@" horiz-adv-x="740" 
d="M280 338c0 27.333 9.5 52.167 28.5 74.5s42.167 33.5 69.5 33.5c24 0 43.333 -8 58 -24s22 -36.333 22 -61c0 -30 -9.5 -56 -28.5 -78s-43.5 -33 -73.5 -33c-23.333 0 -41.833 8.5 -55.5 25.5s-20.5 37.833 -20.5 62.5zM487 493.001
c-28.667 39.333 -69.6631 59.0029 -122.996 59.0029c-30 0 -57.667 -6.33301 -83 -19s-47 -29.834 -65 -51.501s-31.833 -46.334 -41.5 -74.001s-14.5 -56.167 -14.5 -85.5c0 -24 4.5 -46.833 13.5 -68.5s21.5 -40.667 37.5 -57s34.167 -29 54.5 -38
s41.166 -13.5 62.499 -13.5c16.667 0 33.834 4.33301 51.501 13s33.167 20 46.5 34c0 -17.333 5.5 -30.166 16.5 -38.499s24.833 -12.5 41.5 -12.5c13.333 0 28 2.5 44 7.5s32 11.667 48 20s31 17.5 45 27.5s26 20 36 30c26.667 27.333 46.167 58.166 58.5 92.499
s18.5 72.166 18.5 113.499c0 44 -9.83301 84.833 -29.5 122.5s-47.167 71.167 -82.5 100.5c-64.667 56 -143 84 -235 84c-52.667 0 -102.167 -9.5 -148.5 -28.5s-87 -45.833 -122 -80.5s-62.333 -75.167 -82 -121.5s-29.5 -95.833 -29.5 -148.5c0 -54 10 -104.167 30 -150.5
s47.833 -86.666 83.5 -120.999s77.167 -60.833 124.5 -79.5s97.333 -28 150 -28c61.333 0 117.166 13.667 167.499 41s93.833 66 130.5 116h-99c-26 -20.667 -55.333 -37 -88 -49s-67 -18 -103 -18c-42.667 0 -82.167 6.83301 -118.5 20.5s-67.666 33 -93.999 58
s-46.833 55.5 -61.5 91.5s-22 75.667 -22 119c0 41.333 6.66699 79.666 20 114.999s32.333 66 57 92s54.167 46.167 88.5 60.5s72.166 21.5 113.499 21.5c79.333 0 143.833 -22 193.5 -66s74.5 -105.333 74.5 -184c0 -26 -2.83301 -50.333 -8.5 -73
s-13.334 -42.167 -23.001 -58.5s-20.334 -29 -32.001 -38s-22.834 -13.5 -33.501 -13.5c-10 0 -15 4.66699 -15 14c0 2.66699 0.666992 8 2 16l1 6l49 292h-95z" />
    <glyph glyph-name="A" unicode="A" horiz-adv-x="778" 
d="M463 245h-149l73 258zM242 0l27 95h235l28 -95h235l-258 720h-240l-258 -720h231z" />
    <glyph glyph-name="B" unicode="B" horiz-adv-x="778" 
d="M383 301c44.667 0 77.501 -3.99902 98.501 -11.999s31.5 -26.333 31.5 -55c0 -24.667 -8.83301 -41.834 -26.5 -51.501s-42.834 -14.5 -75.501 -14.5h-103v133h75zM391.001 552.001c32.667 0 56.833 -3.16797 72.5 -9.50098s23.5 -22.166 23.5 -47.499
c0 -20 -7.5 -35.5 -22.5 -46.5s-34.5 -16.5 -58.5 -16.5h-98v120h83zM423 0c48.667 0 91.833 3.83008 129.5 11.4971s70 20 97 37s47.667 39.5 62 67.5s21.5 61.667 21.5 101c0 40 -10.5 75 -31.5 105s-50.5 50 -88.5 60c26 16.667 48.167 38.5 66.5 65.5
s27.5 57.5 27.5 91.5c0 34.667 -7.33301 63.834 -22 87.501s-35 42.334 -61 56.001s-56.333 23.334 -91 29.001s-73.667 8.5 -117 8.5h-344v-720h351z" />
    <glyph glyph-name="C" unicode="C" horiz-adv-x="778" 
d="M743 445c-9.33301 94 -44.8311 166.498 -106.498 217.498s-146.834 76.5 -255.501 76.5c-50 0 -96.833 -8.66699 -140.5 -26s-81.834 -42.666 -114.501 -75.999s-58.167 -73.333 -76.5 -120s-27.5 -98.667 -27.5 -156c0 -58 8.66699 -110.5 26 -157.5
s42.666 -87.167 75.999 -120.5s73.666 -58.666 120.999 -75.999s100.333 -26 159 -26c95.333 0 173.833 26.5 235.5 79.5s97.834 125.833 108.501 218.5h-227c-4.66699 -36.667 -17 -66.167 -37 -88.5s-48 -33.5 -84 -33.5c-28.667 0 -52.5 5.16699 -71.5 15.5
s-33.5 24.666 -43.5 42.999s-17 38.833 -21 61.5s-6 48 -6 76c0 68.667 11.667 120.834 35 156.501s56 53.5 98 53.5c36.667 0 66.334 -10.333 89.001 -31s35.667 -49.667 39 -87h224z" />
    <glyph glyph-name="D" unicode="D" horiz-adv-x="778" 
d="M301 552h45c64.667 0 110 -13.333 136 -40s39 -76.667 39 -150c0 -66.667 -14.333 -115.667 -43 -147s-71 -47 -127 -47h-50v384zM375 0c59.333 0 112.333 6.99902 159 20.999s86.667 36 120 66s58.833 68.833 76.5 116.5s26.5 104.834 26.5 171.501
c0 116 -32.833 202.5 -98.5 259.5s-158.167 85.5 -277.5 85.5h-316v-720h310z" />
    <glyph glyph-name="E" unicode="E" horiz-adv-x="722" 
d="M677 0v168h-365v113h297v168h-297v103h351v168h-587v-720h601z" />
    <glyph glyph-name="F" unicode="F" 
d="M310 0v253h258v168h-258v131h324v168h-560v-720h236z" />
    <glyph glyph-name="G" unicode="G" horiz-adv-x="833" 
d="M766 396l-323.002 0.000976562v-156h104c-6 -24 -21.333 -43.833 -46 -59.5s-49.667 -23.5 -75 -23.5c-28.667 0 -52.834 5.16699 -72.501 15.5s-35.167 24.5 -46.5 42.5s-19.5 38.5 -24.5 61.5s-7.5 48.167 -7.5 75.5c0 65.333 11.5 116.833 34.5 154.5
s57.167 56.5 102.5 56.5c30.667 0 56.334 -7.83301 77.001 -23.5s35.334 -38.167 44.001 -67.5h224c-14 86 -52 152 -114 198s-137.667 69 -227 69c-57.333 0 -109.333 -9.33301 -156 -28s-86.5 -45.334 -119.5 -80.001s-58.167 -75.667 -75.5 -123
s-26 -99.666 -26 -156.999c0 -60.667 9.16699 -114.334 27.5 -161.001s43.833 -85.5 76.5 -116.5s69.834 -54.167 111.501 -69.5s86.167 -23 133.5 -23c52 0 95.667 8.16699 131 24.5s64 37.5 86 63.5l9 -71h152v398z" />
    <glyph glyph-name="H" unicode="H" horiz-adv-x="833" 
d="M305 0v279h223v-279h236v720h-236v-243h-223v243h-236v-720h236z" />
    <glyph glyph-name="I" unicode="I" horiz-adv-x="389" 
d="M312 0v720h-236v-720h236z" />
    <glyph glyph-name="J" unicode="J" 
d="M27 313c-1.33301 -18 -1.99707 -34.999 -1.99707 -50.999c0 -92 24.333 -161.833 73 -209.5s120.667 -71.5 216 -71.5c94 0 164.333 25.333 211 76s70 124.334 70 221.001v442h-236v-475c0 -28 -5.33301 -49.667 -16 -65s-25.334 -23 -44.001 -23
c-14.667 0 -26.334 4.33301 -35.001 13s-14.834 20.167 -18.501 34.5s-6 29.666 -7 45.999s-1.5 37.166 -1.5 62.499h-210z" />
    <glyph glyph-name="K" unicode="K" horiz-adv-x="833" 
d="M75 0h236v228l56 59l173 -287h283l-291 449l263 271h-277l-207 -233v233h-236v-720z" />
    <glyph glyph-name="L" unicode="L" 
d="M636 0v168h-324v552h-236v-720h560z" />
    <glyph glyph-name="M" unicode="M" horiz-adv-x="944" 
d="M272 0v244l-5 112l-10 106h2l131 -462h164l131 462h2l-12 -130l-3 -112v-220h212v720h-285l-127 -449l-127 449h-285v-720h212z" />
    <glyph glyph-name="N" unicode="N" horiz-adv-x="833" 
d="M290 720h-221v-720h226v228l-9 164l257 -392h221v720h-226v-229l9 -164z" />
    <glyph glyph-name="O" unicode="O" horiz-adv-x="833" 
d="M414 563c25.333 0 47.1689 -5.5 65.502 -16.5s33.333 -26 45 -45s20.167 -40.333 25.5 -64s8 -48.167 8 -73.5c0 -63.333 -11.5 -113.666 -34.5 -150.999s-58.833 -56 -107.5 -56c-26.667 0 -49.334 6.16699 -68.001 18.5s-33.334 28.666 -44.001 48.999
s-18.167 42.333 -22.5 66s-6.5 48.167 -6.5 73.5c0 24.667 2.33301 48.667 7 72s12.5 44.5 23.5 63.5s25.5 34.333 43.5 46s39.667 17.5 65 17.5zM416.003 739c-55.333 0 -106.164 -8.66992 -152.497 -26.0029s-86.333 -42.5 -120 -75.5s-59.5 -72.667 -77.5 -119
s-27 -97.166 -27 -152.499c0 -60 9 -114 27 -162s43.667 -88.667 77 -122s73.166 -58.5 119.499 -75.5s97.5 -25.5 153.5 -25.5c53.333 0 103 8.5 149 25.5s86.167 42 120.5 75s61 73.333 80 121s28.5 101.5 28.5 161.5c0 48.667 -7.83301 95.334 -23.5 140.001
s-39.334 84.834 -71.001 120.501s-71.334 63.667 -119.001 84s-102.5 30.5 -164.5 30.5z" />
    <glyph glyph-name="P" unicode="P" horiz-adv-x="722" 
d="M293 392l0.000976562 159.999h67c14.667 0 29.167 -1 43.5 -3s27.666 -5.66699 39.999 -11s22.5 -13 30.5 -23s12 -23 12 -39c0 -29.333 -8.5 -50.666 -25.5 -63.999s-40.167 -20 -69.5 -20h-98zM293.001 -0.000976562v224h119c100.667 0 175.667 22.167 225 66.5
s74 106.5 74 186.5c0 76 -25.833 135.5 -77.5 178.5s-128.167 64.5 -229.5 64.5h-347v-720h236z" />
    <glyph glyph-name="Q" unicode="Q" horiz-adv-x="833" 
d="M371 245l81.001 -80.999c-12.667 -4.66699 -24.667 -7 -36 -7c-26.667 0 -49.334 6.16699 -68.001 18.5s-33.334 28.666 -44.001 48.999s-18.167 42.333 -22.5 66s-6.5 48.167 -6.5 73.5c0 24.667 2.33301 48.667 7 72s12.5 44.5 23.5 63.5s25.5 34.333 43.5 46
s39.667 17.5 65 17.5c44.667 0 79.834 -17.833 105.501 -53.5s38.5 -84.167 38.5 -145.5c0 -37.333 -3.33301 -68 -10 -92l-77 78zM792.001 24.001l-82.002 82.998c28 34.667 49 74.5 63 119.5s21 90.833 21 137.5c0 52 -8.66699 100.833 -26 146.5s-42.5 85.667 -75.5 120
s-73 61 -120 80s-99.167 28.5 -156.5 28.5c-55.333 0 -106.166 -8.66699 -152.499 -26s-86.333 -42.5 -120 -75.5s-59.5 -72.667 -77.5 -119s-27 -97.166 -27 -152.499c0 -60 8.83301 -113.833 26.5 -161.5s43 -88.167 76 -121.5s72.833 -58.666 119.5 -75.999
s98.334 -26 155.001 -26c38 0 71.5 3.66699 100.5 11s55.167 16 78.5 26l98 -99z" />
    <glyph glyph-name="R" unicode="R" horiz-adv-x="778" 
d="M297 552l110 0.000976562c28.667 0 51.667 -6.33301 69 -19s26 -31.334 26 -56.001c0 -24 -9.16699 -41.333 -27.5 -52s-46.5 -16 -84.5 -16h-93v143zM369 251.001c28 0 50.167 -2.16797 66.5 -6.50098s28.833 -11.166 37.5 -20.499s14.5 -21.666 17.5 -36.999
s4.5 -35.666 4.5 -60.999c0 -29.333 1.16699 -55.5 3.5 -78.5s5.16602 -38.833 8.49902 -47.5h239v22c-11.333 0 -18.333 7.5 -21 22.5s-4 49.5 -4 103.5c0 35.333 -2.66699 64 -8 86s-13.166 39.333 -23.499 52s-22 22.5 -35 29.5s-31.5 14.833 -55.5 23.5
c40 11.333 70.167 32.666 90.5 63.999s30.5 68.666 30.5 111.999c0 72 -23.833 124.167 -71.5 156.5s-130.167 48.5 -247.5 48.5h-340v-720h236v251h72z" />
    <glyph glyph-name="S" unicode="S" horiz-adv-x="722" 
d="M669 511c-4 32 -13.1699 61.832 -27.5029 89.499s-34 51.834 -59 72.501s-56 36.834 -93 48.501s-79.833 17.5 -128.5 17.5c-93.333 0 -168.666 -19.833 -225.999 -59.5s-86 -96.5 -86 -170.5c0 -40 8.16699 -73.667 24.5 -101s37.833 -49.333 64.5 -66
s54 -29.5 82 -38.5s63 -18.5 105 -28.5c48.667 -11.333 83.834 -22 105.501 -32s32.5 -24.333 32.5 -43c0 -16.667 -8.83301 -29.667 -26.5 -39s-41.5 -14 -71.5 -14c-25.333 0 -47.666 6 -66.999 18c-21.333 12.667 -34.333 31.667 -39 57h-226
c1.33301 -32.667 9.83301 -63.5 25.5 -92.5s37.5 -54.667 65.5 -77s61.5 -39.833 100.5 -52.5s81.5 -19 127.5 -19c102.667 0 184.5 21.167 245.5 63.5s91.5 103.833 91.5 184.5c0 38 -8.16699 70 -24.5 96s-37.666 47.167 -63.999 63.5s-53.333 29 -81 38
s-62.5 18.833 -104.5 29.5c-48.667 11.333 -84.167 22.166 -106.5 32.499s-33.5 24.833 -33.5 43.5c0 27.333 25 41 75 41c24 0 44.333 -4.33301 61 -13c19.333 -10 30.666 -26.333 33.999 -49h224z" />
    <glyph glyph-name="T" unicode="T" horiz-adv-x="722" 
d="M31 531h212v-531h236v531h212v189h-660v-189z" />
    <glyph glyph-name="U" unicode="U" horiz-adv-x="833" 
d="M70 314c0 -61.333 7.50098 -113.333 22.501 -156s37.167 -77 66.5 -103s65.333 -44.833 108 -56.5s92.667 -17.5 150 -17.5c120 0 207.667 26.5 263 79.5s83 137.167 83 252.5v407h-236v-431c0 -42 -8.33301 -74.5 -25 -97.5s-45 -34.5 -85 -34.5
c-23.333 0 -42.5 3.33301 -57.5 10s-26.333 16 -34 28s-12.834 25.667 -15.501 41s-4 33 -4 53v431h-236v-406z" />
    <glyph glyph-name="V" unicode="V" horiz-adv-x="778" 
d="M268 0h237l250 720h-238l-131 -479l-126 479h-238z" />
    <glyph glyph-name="W" unicode="W" horiz-adv-x="1000" 
d="M597 720h-195l-86 -445h-2l-81 445h-228l179 -720h232l82 418h2l83 -418h232l179 720h-228l-81 -445h-2z" />
    <glyph glyph-name="X" unicode="X" horiz-adv-x="778" 
d="M389 202l116 -202h265l-245 374l243 346h-265l-103 -184l-102 184h-265l230 -346l-255 -374h265z" />
    <glyph glyph-name="Y" unicode="Y" horiz-adv-x="778" 
d="M507 266l268 454h-260l-124 -244l-124 244h-264l268 -458v-262h236v266z" />
    <glyph glyph-name="Z" unicode="Z" horiz-adv-x="722" 
d="M685 0v168h-364l350 385v167h-621v-168h331l-345 -381v-171h649z" />
    <glyph glyph-name="bracketleft" unicode="[" horiz-adv-x="389" 
d="M356 -178v148h-129v602h129v148h-312v-898h312z" />
    <glyph glyph-name="backslash" unicode="\" horiz-adv-x="278" 
d="M-32 720l216 -810h126l-216 810h-126z" />
    <glyph glyph-name="bracketright" unicode="]" horiz-adv-x="389" 
d="M345 720h-312v-148h129v-602h-129v-148h312v898z" />
    <glyph glyph-name="asciicircum" unicode="^" horiz-adv-x="660" 
d="M194 291l136 279l136 -279l104 47l-180 377h-120l-180 -377z" />
    <glyph glyph-name="underscore" unicode="_" horiz-adv-x="500" 
d="M0 -75v-50h500v50h-500z" />
    <glyph glyph-name="grave" unicode="`" horiz-adv-x="333" 
d="M-36 738l171 -148h137l-100 148h-208z" />
    <glyph glyph-name="a" unicode="a" 
d="M634 0l0.000976562 9.99902c-12.667 10 -20.5 19.5 -23.5 28.5s-4.5 21.833 -4.5 38.5v245c0 37.333 -2.5 68.166 -7.5 92.499s-16 46 -33 65s-43.333 33.667 -79 44s-83.5 15.5 -143.5 15.5c-100 0 -172.667 -15 -218 -45s-68 -73.667 -68 -131h200
c2 20 10 33.5 24 40.5s30.333 10.5 49 10.5c16.667 0 32.167 -3 46.5 -9s21.5 -17.333 21.5 -34c0 -17.333 -9.83301 -29.166 -29.5 -35.499s-51.834 -12.166 -96.501 -17.499c-37.333 -4.66699 -68.666 -9.5 -93.999 -14.5s-49.833 -13.333 -73.5 -25
s-42.834 -28.667 -57.501 -51s-22 -50.5 -22 -84.5c0 -51.333 17.833 -90.5 53.5 -117.5s80.167 -40.5 133.5 -40.5c41.333 0 77.5 5.33301 108.5 16s60.5 29 88.5 55l10 -56h215zM306.001 102.999c-20.667 0 -36.833 4 -48.5 12s-17.5 18.667 -17.5 32
c0 20 6.66699 33.833 20 41.5s35 14.834 65 21.501c32.667 7.33301 57 14.666 73 21.999v-9l1 -9c0 -34 -7.5 -61 -22.5 -81s-38.5 -30 -70.5 -30z" />
    <glyph glyph-name="b" unicode="b" 
d="M256 720l-207.999 -0.00195312v-720h187v74h2c14 -27.333 34.167 -49 60.5 -65s59.833 -24 100.5 -24c41.333 0 77.166 7.16699 107.499 21.5s55 34.166 74 59.499s33 54.833 42 88.5s13.5 70.5 13.5 110.5c0 38.667 -5.5 74.834 -16.5 108.501
s-26.667 62.834 -47 87.501s-44.5 43.834 -72.5 57.501s-58.667 20.5 -92 20.5c-31.333 0 -59.333 -5.33301 -84 -16s-47 -28 -67 -52v249zM339.001 134.998c-16 0 -29.8311 3.83301 -41.498 11.5s-20.834 17.667 -27.501 30s-11.5 26 -14.5 41s-4.5 29.833 -4.5 44.5
c0 30.667 7.33301 57.667 22 81s36.667 35 66 35c30.667 0 53 -11.833 67 -35.5s21 -51.834 21 -84.501c0 -15.333 -1.5 -30.166 -4.5 -44.499s-7.83301 -27.333 -14.5 -39s-15.834 -21.167 -27.501 -28.5s-25.5 -11 -41.5 -11z" />
    <glyph glyph-name="c" unicode="c" 
d="M618 324c-3.33301 37.333 -13.498 69.832 -30.498 97.499s-38.667 50.167 -65 67.5s-55.833 30 -88.5 38s-67 12 -103 12c-43.333 0 -83.333 -6.33301 -120 -19s-68.334 -31.167 -95.001 -55.5s-47.334 -54 -62.001 -89s-22 -74.5 -22 -118.5
c0 -43.333 7.5 -82 22.5 -116s36 -62.5 63 -85.5s58.667 -40.5 95 -52.5s75.833 -18 118.5 -18c37.333 0 72.5 4 105.5 12s62.167 20.333 87.5 37c27.333 18 49.5 41.167 66.5 69.5s27.5 61.5 31.5 99.5h-210c-3.33301 -23.333 -11.333 -42.166 -24 -56.499
s-31.667 -21.5 -57 -21.5c-30 0 -52.667 11.667 -68 35s-23 55.333 -23 96c0 18 1.16699 35 3.5 51s6.83301 31 13.5 45s16 25.333 28 34s27.333 13 46 13c23.333 0 41.333 -7 54 -21c14 -13.333 21.333 -31.333 22 -54h211z" />
    <glyph glyph-name="d" unicode="d" 
d="M619 0l-0.00195312 720h-208v-249c-21.333 25.333 -44.166 43 -68.499 53s-53.5 15 -87.5 15c-30.667 0 -59.667 -6.66699 -87 -20s-51.166 -32.833 -71.499 -58.5s-36 -56.167 -47 -91.5s-16.5 -74.333 -16.5 -117c0 -78 20.667 -142 62 -192s100 -75 176 -75
c34 0 63.333 6.33301 88 19s49 34.667 73 66v-70h187zM322.998 135c-16 0 -29.5 3.5 -40.5 10.5s-19.5 16.167 -25.5 27.5s-10.167 23.833 -12.5 37.5s-3.5 28.167 -3.5 43.5s1.33301 30.333 4 45s7.5 28 14.5 40s16.167 21.5 27.5 28.5s25.333 10.5 42 10.5
c32 0 54.833 -11.667 68.5 -35s20.5 -52 20.5 -86c0 -34.667 -7.5 -63.667 -22.5 -87s-39.167 -35 -72.5 -35z" />
    <glyph glyph-name="e" unicode="e" 
d="M239 321c0 28.667 8.5 51 25.5 67s40.833 24 71.5 24c24.667 0 46.167 -9.16699 64.5 -27.5s27.5 -39.5 27.5 -63.5h-189zM636 215c0 48 -7 92.0029 -21 132.003s-34.5 74.333 -61.5 103s-59.5 50.667 -97.5 66s-80.667 23 -128 23c-42 0 -81 -6.5 -117 -19.5
s-67.5 -32 -94.5 -57s-48 -55 -63 -90s-22.5 -73.5 -22.5 -115.5c0 -42.667 7.5 -81 22.5 -115s36 -62.667 63 -86s58.667 -41 95 -53s75.5 -18 117.5 -18c32 0 63.167 3.16699 93.5 9.5s58.833 16.166 85.5 29.499s49.667 31.166 69 53.499s33.333 49.166 42 80.499h-199
c-7.33301 -15.333 -17.833 -26.833 -31.5 -34.5s-29.167 -11.5 -46.5 -11.5c-28 0 -52.167 9.66699 -72.5 29s-30.5 44 -30.5 74h397z" />
    <glyph glyph-name="f" unicode="f" horiz-adv-x="389" 
d="M286 524v10.9971l-1 9c0 29.333 5.83301 47.333 17.5 54s35.167 10 70.5 10v131h-89c-36 0 -66.333 -2.66699 -91 -8s-45.5 -15.666 -62.5 -30.999s-29.833 -37.166 -38.5 -65.499s-13 -65.166 -13 -110.499h-70v-120h69v-404h208v404h87v120h-87z" />
    <glyph glyph-name="g" unicode="g" 
d="M324 390c30.667 0 53 -10.667 67 -32s21 -48.333 21 -81c0 -30.667 -7.16699 -56.334 -21.5 -77.001s-36.5 -31 -66.5 -31c-26.667 0.666992 -47 10.834 -61 30.501s-21 43.5 -21 71.5c0 37.333 6.16699 66.5 18.5 87.5s33.5 31.5 63.5 31.5zM61 -27
c2.66699 -20 9.83496 -39.001 21.502 -57.001s28.667 -34.167 51 -48.5s50.333 -25.5 84 -33.5s72.5 -12 116.5 -12c62 0 111.833 6.83301 149.5 20.5s65.5 33 83.5 58s29.667 53.167 35 84.5s8 70.333 8 117v422h-183v-69c-18.667 26 -42 46.5 -70 61.5
s-57.667 22.5 -89 22.5c-41.333 0 -77 -7.5 -107 -22.5s-54.333 -35.167 -73 -60.5s-32.334 -53.666 -41.001 -84.999s-13 -64 -13 -98c0 -33.333 5.16699 -65 15.5 -95s25.333 -56.5 45 -79.5s43.667 -41 72 -54s60.166 -19.5 95.499 -19.5c34.667 0 64 5.16699 88 15.5
s44.667 24.166 62 41.499v-43c0 -37.333 -6.5 -63.666 -19.5 -78.999s-34.5 -23 -64.5 -23c-20 0 -35 4.33301 -45 13c-8.66699 8 -13 15.667 -13 23h-209z" />
    <glyph glyph-name="h" unicode="h" 
d="M48 0h208v267c0 36 6 63 18 81s33 27 63 27c27.333 0 46.333 -8.83301 57 -26.5s16 -41.5 16 -71.5v-277h208v314c0 73.333 -16.833 129.166 -50.5 167.499s-84.5 57.5 -152.5 57.5c-34 0 -63.5 -6.66699 -88.5 -20s-48.5 -33.666 -70.5 -60.999v262h-208v-720z" />
    <glyph glyph-name="i" unicode="i" horiz-adv-x="333" 
d="M270 0v524h-208v-524h208zM62 591h208v148h-208v-148z" />
    <glyph glyph-name="j" unicode="j" horiz-adv-x="333" 
d="M74 524l0.00195312 -474.001c0 -18.667 -1.16699 -33 -3.5 -43s-6.5 -17.5 -12.5 -22.5s-14.833 -8.16699 -26.5 -9.5s-28.834 -2 -51.501 -2v-148c37.333 -2 69 -3 95 -3c46.667 0 84.167 5.5 112.5 16.5s49.166 26.5 62.499 46.5s22 42.833 26 68.5s6 57.834 6 96.501
v474h-208zM282.002 590.999v148h-208v-148h208z" />
    <glyph glyph-name="k" unicode="k" 
d="M300 186l112 -186h250l-219 321l194 203h-243l-133 -160v356h-208v-720h208v147z" />
    <glyph glyph-name="l" unicode="l" horiz-adv-x="333" 
d="M270 0v720h-208v-720h208z" />
    <glyph glyph-name="m" unicode="m" horiz-adv-x="1000" 
d="M45 0l207.998 -0.00292969v259c0 36.667 5.16699 65.167 15.5 85.5s29.5 30.5 57.5 30.5c26.667 0 45 -8.16699 55 -24.5s15 -44.166 15 -83.499v-267h208v259c0 36.667 5.16699 65.167 15.5 85.5s29.5 30.5 57.5 30.5c26.667 0 45 -8.16699 55 -24.5
s15 -44.166 15 -83.499v-267h208v310c0 76 -15.167 133.167 -45.5 171.5s-82.166 57.5 -155.499 57.5c-74.667 0 -135 -32 -181 -96c-13.333 30 -34 53.5 -62 70.5s-64.333 25.5 -109 25.5c-34.667 0 -67.167 -9.66699 -97.5 -29s-53.166 -40.666 -68.499 -63.999v78h-191
v-524z" />
    <glyph glyph-name="n" unicode="n" 
d="M48 0l208.001 0.000976562v267c0 36 6 63 18 81s33 27 63 27c27.333 0 46.333 -8.83301 57 -26.5s16 -41.5 16 -71.5v-277h208v314c0 73.333 -16.833 129.166 -50.5 167.499s-84.5 57.5 -152.5 57.5c-38 0 -70.833 -8 -98.5 -24s-53.834 -40.333 -78.501 -73v82h-190
v-524z" />
    <glyph glyph-name="o" unicode="o" 
d="M335 399c27.333 0 48.834 -12.332 64.501 -36.999s23.5 -56.334 23.5 -95.001c0 -48 -7.83301 -83.667 -23.5 -107s-37.834 -35 -66.501 -35c-28 0 -50 11.667 -66 35s-24 59 -24 107c0 16 1.66699 31.667 5 47s8.33301 29.333 15 42s16.167 23 28.5 31
s26.833 12 43.5 12zM35.001 256.001c0 -86.667 27.833 -153.501 83.5 -200.501s127.167 -70.5 214.5 -70.5c42.667 0 82.167 5.83301 118.5 17.5s67.833 29.167 94.5 52.5s47.5 52.833 62.5 88.5s22.5 76.834 22.5 123.501c0 82 -26.833 147.833 -80.5 197.5
s-126.5 74.5 -218.5 74.5c-90 0 -162 -24.833 -216 -74.5s-81 -119.167 -81 -208.5z" />
    <glyph glyph-name="p" unicode="p" 
d="M44 524v-701.999h208v230c35.333 -44.667 80 -67 134 -67c30.667 0 60.5 5.16699 89.5 15.5s55.167 26.666 78.5 48.999s42 51.666 56 87.999s21 79.166 21 128.499c0 36.667 -4.83301 71.334 -14.5 104.001s-24.334 61.834 -44.001 87.501s-44.334 45.667 -74.001 60
s-63.5 21.5 -101.5 21.5c-33.333 0 -65.666 -8 -96.999 -24s-53.666 -39 -66.999 -69h-2v78h-187zM333 144.001c-26.667 0 -47.502 11.168 -62.502 33.501s-22.5 52.166 -22.5 89.499c0 35.333 7.83301 63.833 23.5 85.5s35.834 32.5 60.501 32.5
c28 0 50.167 -10.167 66.5 -30.5s24.5 -50.833 24.5 -91.5c0 -36 -8.16699 -64.833 -24.5 -86.5s-38.166 -32.5 -65.499 -32.5z" />
    <glyph glyph-name="q" unicode="q" 
d="M413 263c0 -13.333 -1.66602 -27 -4.99902 -41s-8.33301 -27 -15 -39c-16 -27.333 -38 -41 -66 -41c-18 0 -33 3.5 -45 10.5s-21.5 16.333 -28.5 28s-11.833 24.667 -14.5 39s-4 30.166 -4 47.499c0 32.667 7.5 60.334 22.5 83.001s38.167 34 69.5 34
c15.333 0 28.666 -3.5 39.999 -10.5s20.333 -16.333 27 -28s11.5 -24.667 14.5 -39s4.5 -28.833 4.5 -43.5zM616.001 524l-186.998 0.00195312v-78h-2c-30.667 62 -87 93 -169 93c-36 0 -68.5 -7.33301 -97.5 -22s-53.5 -34.667 -73.5 -60s-35 -54.333 -45 -87
s-15 -66.334 -15 -101.001c0 -44.667 6 -84.834 18 -120.501s28.667 -65.667 50 -90s45.666 -42.666 72.999 -54.999s56 -18.5 86 -18.5c35.333 0 64.666 4.66699 87.999 14s45.333 26.666 66 51.999v-229h208v702z" />
    <glyph glyph-name="r" unicode="r" horiz-adv-x="444" 
d="M52 0l207.999 0.00195312v181c0 55.333 10.333 94.666 31 117.999s53 35 97 35c6.66699 0 16.334 -1.33301 29.001 -4c6.66699 -0.666992 11.334 -1.33398 14.001 -2.00098v208l-9 1c-8 1.33301 -14 2 -18 2c-78.667 0 -132.334 -40.333 -161.001 -121h-2v106h-189v-524z
" />
    <glyph glyph-name="s" unicode="s" horiz-adv-x="611" 
d="M33 163c2.66699 -33.333 11.8379 -61.666 27.5049 -84.999s36 -41.833 61 -55.5s52.167 -23.334 81.5 -29.001s60.333 -8.5 93 -8.5c93.333 0 163.666 16.333 210.999 49s71 77.334 71 134.001c0 28.667 -6.66699 53 -20 73s-30.833 36 -52.5 48
s-43.834 21.333 -66.501 28s-51 13.667 -85 21c-38 8 -65.333 15.167 -82 21.5s-25 15.833 -25 28.5s5.16699 22 15.5 28s24.833 9 43.5 9c17.333 0 31.333 -4.33301 42 -13c11.333 -9.33301 18 -22 20 -38h189c-2.66699 33.333 -12 60.833 -28 82.5s-36.333 38.5 -61 50.5
s-51.334 20.333 -80.001 25s-59 7 -91 7c-29.333 0 -58.5 -2.83301 -87.5 -8.5s-55.667 -15.167 -80 -28.5s-43.833 -31.333 -58.5 -54s-22 -50 -22 -82c0 -29.333 6.33301 -53.833 19 -73.5s29 -35.334 49 -47.001s41.167 -20.5 63.5 -26.5s49.166 -12 80.499 -18
c38 -8 65.667 -15.5 83 -22.5s26 -17.833 26 -32.5c0 -16.667 -6.33301 -28.667 -19 -36s-28.334 -11 -47.001 -11c-20 0 -37 5.33301 -51 16c-14.667 11.333 -22 27.333 -22 48h-198z" />
    <glyph glyph-name="t" unicode="t" horiz-adv-x="444" 
d="M394 149l-33 0.000976562c-27.333 0 -45 4.5 -53 13.5s-12 26.167 -12 51.5v190h100v120h-100v163h-205v-163h-77v-120h74v-219c0 -40.667 2.16699 -72.667 6.5 -96s12.833 -41.833 25.5 -55.5s31.167 -23.334 55.5 -29.001s57.833 -8.5 100.5 -8.5
c28.667 0 68 1.33301 118 4v149z" />
    <glyph glyph-name="u" unicode="u" 
d="M618 524l-208 0.000976562v-252c0 -42.667 -6 -74.334 -18 -95.001s-32.333 -31 -61 -31c-26 0 -45 7.16699 -57 21.5s-18 38.833 -18 73.5v283h-208v-319c0 -73.333 16.667 -128.333 50 -165s79.333 -55 138 -55c44.667 0 81 6.66699 109 20s54.667 37.333 80 72v-77
h193v524z" />
    <glyph glyph-name="v" unicode="v" horiz-adv-x="611" 
d="M192 0h232l177 524h-200l-91 -331l-92 331h-208z" />
    <glyph glyph-name="w" unicode="w" horiz-adv-x="944" 
d="M563 524h-176l-81 -324h-2l-80 324h-203l173 -524h203l73 307h2l81 -307h203l167 524h-197l-81 -324h-2z" />
    <glyph glyph-name="x" unicode="x" 
d="M27 0h230l76 150l74 -150h232l-181 275l179 249h-228l-70 -131l-66 131h-231l173 -250z" />
    <glyph glyph-name="y" unicode="y" horiz-adv-x="611" 
d="M215 524h-209.001l172 -477c6 -16.667 9 -30 9 -40c0 -24.667 -22.667 -37 -68 -37h-21c-8 0.666992 -15.333 1 -22 1v-145c4.66699 0 14 -0.333008 28 -1c26 -2 47.333 -3 64 -3c46.667 0 83.834 3.5 111.501 10.5s50 18.333 67 34s31 35.667 42 60
s24.833 60.5 41.5 108.5l168 489h-200l-91 -323z" />
    <glyph glyph-name="z" unicode="z" horiz-adv-x="556" 
d="M530 0v152h-240l229 227v145h-472v-152h216l-237 -233v-139h504z" />
    <glyph glyph-name="braceleft" unicode="{" horiz-adv-x="389" 
d="M292 129c0 48.667 -5.66797 83.335 -17.001 104.002s-33 35.334 -65 44.001v2c32 7.33301 53.667 21.666 65 42.999s17 52.333 17 93v201c0 36 5.33301 62.833 16 80.5s30.334 31.167 59.001 40.5v2c-30 1.33301 -56.667 2 -80 2c-41.333 0 -74.333 -2.5 -99 -7.5
s-43.334 -13 -56.001 -24s-21.167 -25.333 -25.5 -43s-6.5 -41.167 -6.5 -70.5v-200c0 -34.667 -5.5 -61 -16.5 -79s-30.5 -30.667 -58.5 -38v-2c30 -8 50 -20.5 60 -37.5s15 -43.833 15 -80.5v-176c0 -31.333 1.33301 -55.833 4 -73.5s9.83398 -33.334 21.501 -47.001
s30.667 -24.334 57 -32.001s62.166 -11.5 107.499 -11.5c22.667 0 48.334 1 77.001 3v2c-28 8 -47.5 21.167 -58.5 39.5s-16.5 44.833 -16.5 79.5v186z" />
    <glyph glyph-name="bar" unicode="|" horiz-adv-x="278" 
d="M79 750v-1000h119v1000h-119z" />
    <glyph glyph-name="braceright" unicode="}" horiz-adv-x="389" 
d="M289 165c0 34.667 5.5 60.999 16.5 78.999s30.5 30.667 58.5 38v2c-30 8 -50 20.5 -60 37.5s-15 43.833 -15 80.5v176c0 31.333 -1.33301 55.833 -4 73.5s-9.83398 33.334 -21.501 47.001s-30.667 24.334 -57 32.001s-62.166 11.5 -107.499 11.5c-22 0 -47.667 -1 -77 -3
v-2c28 -8 47.5 -21.167 58.5 -39.5s16.5 -44.833 16.5 -79.5v-186c0 -48.667 5.66699 -83.334 17 -104.001s33 -35.334 65 -44.001v-2c-32 -7.33301 -53.667 -21.666 -65 -42.999s-17 -52.333 -17 -93v-201c0 -36 -5.33301 -62.833 -16 -80.5s-30.334 -31.167 -59.001 -40.5
v-2c30 -1.33301 56.667 -2 80 -2c41.333 0 74.333 2.5 99 7.5s43.334 13 56.001 24s21.167 25.333 25.5 43s6.5 41.167 6.5 70.5v200z" />
    <glyph glyph-name="asciitilde" unicode="~" horiz-adv-x="660" 
d="M518 359c-2 -2.66699 -5.33398 -7.66895 -10.001 -15.002c-11.333 -19.333 -22.166 -34 -32.499 -44s-23.166 -15 -38.499 -15c-8.66699 0 -19.334 2.33301 -32.001 7s-28.667 11 -48 19c-3.33301 2 -8.33301 4.33301 -15 7
c-23.333 10.667 -44.166 18.834 -62.499 24.501s-35.833 8.5 -52.5 8.5c-32.667 0 -60.667 -11.5 -84 -34.5s-45 -52.833 -65 -89.5l64 -74c2 2.66699 4.66699 7.33398 8 14.001c12 22 23.667 38.833 35 50.5s26 17.5 44 17.5c13.333 0 26.666 -2.5 39.999 -7.5
s30.333 -12.833 51 -23.5l3 -2c20 -10 39.167 -18 57.5 -24s37.5 -9 57.5 -9c31.333 0 56.833 9.33301 76.5 28s40.5 46 62.5 82l5 7z" />
    <glyph glyph-name="exclamdown" unicode="&#xa1;" horiz-adv-x="333" 
d="M273 -193v169l-50 284h-112l-51 -284v-169h213zM270 330v194h-207v-194h207z" />
    <glyph glyph-name="cent" unicode="&#xa2;" 
d="M266 152c-10.667 14.667 -18.333 32.168 -23 52.501s-7 41.166 -7 62.499c0 41.333 8.16699 74.5 24.5 99.5s40.5 37.5 72.5 37.5c14.667 0 29 -3 43 -9zM302.001 -14.999c102.667 0 180.166 17.332 232.499 51.999s83.5 90.667 93.5 168h-199
c-6 -47.333 -32.667 -75.666 -80 -84.999h-21l93 208h200c-5.33301 36.667 -15.666 68.834 -30.999 96.501s-37.666 51.167 -66.999 70.5l69 160h-133l-51 -122c-32 4 -55.667 6 -71 6c-42 0 -81.167 -5.33301 -117.5 -16s-68.333 -27.334 -96 -50.001
s-49.334 -52 -65.001 -88s-23.5 -78.333 -23.5 -127c0 -52.667 12.833 -101 38.5 -145s61.5 -76.667 107.5 -98l-69 -162h135z" />
    <glyph glyph-name="sterling" unicode="&#xa3;" 
d="M116 -1c2.66699 1.33301 7.33496 4.33301 14.002 9c22.667 13.333 41.5 22.833 56.5 28.5s33.833 8.5 56.5 8.5c16.667 0 32 -1.83301 46 -5.5s34.333 -10.5 61 -20.5c8 -2.66699 12.667 -4.33398 14 -5.00098c23.333 -8.66699 44.666 -15.167 63.999 -19.5
s39.666 -6.5 60.999 -6.5c11.333 0 24.166 1.83301 38.499 5.5s29 9 44 16s28.833 14.667 41.5 23s23 16.5 31 24.5l-80 167c-15.333 -14 -30.666 -25.167 -45.999 -33.5s-31.666 -12.5 -48.999 -12.5c-13.333 0 -33 3.66699 -59 11c-13.333 4 -24.666 7 -33.999 9
c-32.667 6.66699 -59.334 10 -80.001 10c-6 0 -14.667 -1 -26 -3c-9.33301 -1.33301 -15.333 -2 -18 -2l9 7c16.667 12.667 30.5 28.834 41.5 48.501s18.167 39.834 21.5 60.501h92v90h-104l-8 16c-15.333 28 -25.333 49.333 -30 64c-1.33301 5.33301 -2 10.666 -2 15.999
c0 19.333 7.5 35 22.5 47s33.167 18 54.5 18c30.667 0 53.667 -8.33301 69 -25c14 -15.333 21.667 -39 23 -71h190c-2 87.333 -29.667 152.333 -83 195c-24.667 20 -54.334 34.667 -89.001 44s-73.667 14 -117 14c-36.667 0 -71.667 -3.83301 -105 -11.5
s-63.333 -20 -90 -37s-48 -39.333 -64 -67s-24 -60.834 -24 -99.501c0 -13.333 3.5 -30.166 10.5 -50.499s14.833 -37.833 23.5 -52.5h-60v-90h89c1.33301 -10 2 -19 2 -27c0 -28.667 -7.33301 -53.167 -22 -73.5s-37 -40.5 -67 -60.5z" />
    <glyph glyph-name="currency" unicode="&#xa4;" horiz-adv-x="660" 
d="M76 137l79.001 -78.998l44 44c40 -26 84.667 -39 134 -39c42.667 0 85.667 13 129 39l44 -44l77 79l-44 44c12.667 18 22.167 38.167 28.5 60.5s9.5 45.166 9.5 68.499c0 46 -12.667 89.333 -38 130l44 43l-77 80l-44 -44c-40.667 25.333 -85.334 38 -134.001 38
c-21.333 0 -43.333 -3.33301 -66 -10s-43.667 -16 -63 -28l-44 44l-79 -80l44 -43c-24.667 -40.667 -37 -84.334 -37 -131.001c0 -24 3 -45.667 9 -65s15.333 -40.333 28 -63zM330.001 187.002c-34.667 0 -63.834 12.167 -87.501 36.5s-35.5 53.166 -35.5 86.499
s11.833 62.166 35.5 86.499s52.834 36.5 87.501 36.5s63.834 -12.167 87.501 -36.5s35.5 -53.166 35.5 -86.499s-11.833 -62.166 -35.5 -86.499s-52.834 -36.5 -87.501 -36.5z" />
    <glyph glyph-name="yen" unicode="&#xa5;" 
d="M336 476l-106 244h-231l123 -240h-123v-95h173l49 -95h-222v-95h230v-195h208v195h231v95h-222l49 95h173v95h-122l122 240h-227z" />
    <glyph glyph-name="brokenbar" unicode="&#xa6;" horiz-adv-x="278" 
d="M79 675v-350h119v350h-119zM79 175v-350h119v350h-119z" />
    <glyph glyph-name="section" unicode="&#xa7;" 
d="M259 260c-16 7.33301 -27.668 14.668 -35.001 22.001s-11 17 -11 29c0 12.667 5.33301 23.667 16 33s23.334 16.333 38.001 21l154 -69c10 -4.66699 17.833 -10.334 23.5 -17.001s8.5 -16 8.5 -28s-5.5 -23.167 -16.5 -33.5s-23.5 -16.5 -37.5 -18.5zM556.999 548.002
c0 7.33301 -1.00098 14.002 -3.00098 20.002c-6.66699 56 -29.834 98.5 -69.501 127.5s-88.834 43.5 -147.501 43.5c-29.333 0 -57.666 -3.16699 -84.999 -9.5s-51.833 -16.333 -73.5 -30s-38.834 -31.5 -51.501 -53.5s-19 -47.667 -19 -77c0 -26.667 5.5 -51.667 16.5 -75
s28.167 -44.666 51.5 -63.999c-30 -10.667 -54.667 -28.667 -74 -54s-29 -55.333 -29 -90c0 -35.333 6.5 -65.5 19.5 -90.5s30 -45.333 51 -61s42.833 -28 65.5 -37s50.667 -18.833 84 -29.5c40 -12 69 -23 87 -33s27 -24 27 -42s-6.33301 -30.5 -19 -37.5
s-31 -10.5 -55 -10.5c-23.333 0 -41.333 7.33301 -54 22c-11.333 13.333 -18 31.666 -20 54.999h-155c1.33301 -33.333 8.33301 -62.333 21 -87s29.667 -44.834 51 -60.501s46 -27.167 74 -34.5s58 -11 90 -11c30 0 58.667 4.16699 86 12.5s51.5 20.166 72.5 35.499
s37.333 33.5 49 54.5s17.5 43.833 17.5 68.5c0 53.333 -23.333 98 -70 134c30.667 14 54.667 33.167 72 57.5s26 54.5 26 90.5c0 33.333 -6.16699 62 -18.5 86s-28.666 43.833 -48.999 59.5s-41.166 28.167 -62.499 37.5s-48.666 20 -81.999 32
c-40 14 -69.167 26.333 -87.5 37s-27.5 25.334 -27.5 44.001c0 15.333 6.83301 26.666 20.5 33.999s29.167 11 46.5 11c23.333 0 40 -6.5 50 -19.5s15.667 -31.5 17 -55.5h157z" />
    <glyph glyph-name="dieresis" unicode="&#xa8;" horiz-adv-x="333" 
d="M199 596h169v130h-169v-130zM140 596v130h-169v-130h169z" />
    <glyph glyph-name="copyright" unicode="&#xa9;" horiz-adv-x="800" 
d="M400 -19c51.333 0 100.166 9.66699 146.499 29s87 46.5 122 81.5s62.167 75.667 81.5 122s29 95.166 29 146.499s-9.66699 100.166 -29 146.499s-46.5 87 -81.5 122s-75.667 62.167 -122 81.5s-95.166 29 -146.499 29c-52 0 -101 -9.66699 -147 -29
s-86.5 -46.5 -121.5 -81.5s-62.167 -75.667 -81.5 -122s-29 -95.166 -29 -146.499s9.66699 -100.166 29 -146.499s46.5 -87 81.5 -122s75.5 -62.167 121.5 -81.5s95 -29 147 -29zM400 71c-40.667 0 -78.167 7 -112.5 21s-64 34 -89 60s-44.167 56.667 -57.5 92
s-20 74 -20 116s6.66699 80.667 20 116s32.5 66 57.5 92s54.667 46 89 60s71.833 21 112.5 21c40 0 77.167 -7 111.5 -21s64 -34 89 -60s44.333 -56.667 58 -92s20.5 -74 20.5 -116s-6.83301 -80.667 -20.5 -116s-33 -66 -58 -92s-54.667 -46 -89 -60s-71.5 -21 -111.5 -21z
M593 439c-8 44 -28.334 78.8311 -61.001 104.498s-72 38.5 -118 38.5c-63.333 0 -113.833 -20.5 -151.5 -61.5s-56.5 -93.5 -56.5 -157.5c0 -30 5 -58.333 15 -85s24.333 -50 43 -70s40.834 -35.5 66.501 -46.5s54.167 -16.5 85.5 -16.5c45.333 0 84.833 13.333 118.5 40
s53.167 62.334 58.5 107.001h-86c-1.33301 -22 -11 -39.833 -29 -53.5s-38.667 -20.5 -62 -20.5c-34.667 0 -62.5 14.833 -83.5 44.5s-31.5 63.834 -31.5 102.501c0 40.667 9.66699 74.667 29 102s47 41 83 41c24.667 0 45.5 -6 62.5 -18s27.5 -29 31.5 -51h86z" />
    <glyph glyph-name="ordfeminine" unicode="&#xaa;" horiz-adv-x="400" 
d="M398 416v9.00293c-6.66699 4 -11.334 8.66699 -14.001 14s-4 13 -4 23v147c0 22.667 -1.66699 41.167 -5 55.5s-10.5 27.166 -21.5 38.499s-28.167 20.166 -51.5 26.499s-54.333 9.5 -93 9.5c-64 0 -111.667 -9.33301 -143 -28c-28.667 -17.333 -43 -43 -43 -77h130
c2 12 7.33301 20 16 24s19.334 6 32.001 6c10.667 0 20.667 -1.83301 30 -5.5s14 -10.167 14 -19.5c0 -10.667 -6.5 -17.834 -19.5 -21.501s-33.833 -7.16699 -62.5 -10.5c-24 -2.66699 -44.333 -5.5 -61 -8.5s-32.667 -8 -48 -15s-27.833 -17.167 -37.5 -30.5
s-14.5 -30.333 -14.5 -51c0 -31.333 11.667 -55 35 -71s52.333 -24 87 -24c26.667 0 50 3.16699 70 9.5s39.333 17.5 58 33.5l7 -34h139zM185 478.003c-13.333 0 -24.667 2.49902 -34 7.49902s-14 11.167 -14 18.5c0 11.333 6.16699 19.833 18.5 25.5
s30.166 10.834 53.499 15.501c18.667 4 30.667 7.33301 36 10c0 -25.333 -4.66699 -44.5 -14 -57.5s-24.666 -19.5 -45.999 -19.5z" />
    <glyph glyph-name="guillemotleft" unicode="&#xab;" 
d="M303 64v129l-101 59l101 65v131l-183 -120v-146zM547 64v129l-101 59l101 65v131l-183 -120v-146z" />
    <glyph glyph-name="logicalnot" unicode="&#xac;" horiz-adv-x="660" 
d="M466 120h116v292h-504v-116h388v-176z" />
    <glyph glyph-name="minus" unicode="&#xad;" horiz-adv-x="660" 
d="M78 198h504v116h-504v-116z" />
    <glyph glyph-name="minus" unicode="&#x2212;" horiz-adv-x="660" 
d="M78 198h504v116h-504v-116z" />
    <glyph glyph-name="registered" unicode="&#xae;" horiz-adv-x="800" 
d="M400 -19c51.333 0 100 9.83301 146 29.5s86.5 47 121.5 82s62.333 75.5 82 121.5s29.5 94.667 29.5 146s-9.83301 100 -29.5 146s-47 86.5 -82 121.5s-75.5 62.333 -121.5 82s-94.667 29.5 -146 29.5c-52 0 -101 -9.83301 -147 -29.5s-86.5 -46.834 -121.5 -81.501
s-62.167 -75.167 -81.5 -121.5s-29 -95.166 -29 -146.499s9.66699 -100 29 -146s46.5 -86.5 81.5 -121.5s75.5 -62.333 121.5 -82s95 -29.5 147 -29.5zM400 71c-40.667 0 -78.167 7 -112.5 21s-64 34 -89 60s-44.167 56.667 -57.5 92s-20 74 -20 116s6.66699 80.667 20 116
s32.5 66 57.5 92s54.667 46 89 60s71.833 21 112.5 21c40 0 77.167 -7 111.5 -21s64 -34 89 -60s44.333 -56.667 58 -92s20.5 -74 20.5 -116s-6.83301 -80.667 -20.5 -116s-33 -66 -58 -92s-54.667 -46 -89 -60s-71.5 -21 -111.5 -21zM489 327
c37.333 2.66699 65.332 12.667 83.999 30s28 44.333 28 81c0 46.667 -12.667 79.167 -38 97.5s-65.666 27.5 -120.999 27.5h-198v-409h86v173h68l91 -173h99zM329.999 388v112h93c32.667 0 57.167 -3 73.5 -9s24.5 -20 24.5 -42c0 -23.333 -6.5 -39.333 -19.5 -48
s-32.5 -13 -58.5 -13h-113z" />
    <glyph glyph-name="macron" unicode="&#xaf;" horiz-adv-x="333" 
d="M358 619v90h-377v-90h377z" />
    <glyph glyph-name="degree" unicode="&#xb0;" horiz-adv-x="400" 
d="M350 565c0 20 -3.83301 39.166 -11.5 57.499s-18.5 34.5 -32.5 48.5s-30.167 24.833 -48.5 32.5s-37.5 11.5 -57.5 11.5s-39.167 -3.83301 -57.5 -11.5s-34.5 -18.5 -48.5 -32.5s-24.833 -30 -32.5 -48s-11.5 -37.333 -11.5 -58c0 -20 3.83301 -39.167 11.5 -57.5
s18.5 -34.5 32.5 -48.5s30.167 -24.833 48.5 -32.5s37.5 -11.5 57.5 -11.5s39.167 3.83301 57.5 11.5s34.5 18.334 48.5 32.001s24.833 29.667 32.5 48s11.5 37.833 11.5 58.5zM271 561.999c0 -20.667 -6.8291 -37.167 -20.4961 -49.5s-30.834 -18.5 -51.501 -18.5
s-37.334 6.16699 -50.001 18.5s-19.334 28.833 -20.001 49.5c0 20.667 6.66699 38.167 20 52.5s29.666 21.5 48.999 21.5c20.667 0 38 -7.33301 52 -22s21 -32 21 -52z" />
    <glyph glyph-name="plusminus" unicode="&#xb1;" horiz-adv-x="660" 
d="M272 442h-194v-116h194v-168h116v168h194v116h-194v161h-116v-161zM78 0h504v116h-504v-116z" />
    <glyph glyph-name="twosuperior" unicode="&#xb2;" horiz-adv-x="400" 
d="M180 412c9.33301 6.66699 26.333 16.3379 51 29.0049l41 22l9 5c38 21.333 66.333 41.166 85 59.499s28 43.166 28 74.499c0 24 -4.83301 44.667 -14.5 62s-23.167 31.666 -40.5 42.999s-37 19.5 -59 24.5s-45.333 7.5 -70 7.5c-62 0 -109.5 -14 -142.5 -42
s-50.167 -72.333 -51.5 -133h121c0 23.333 5.16699 42.666 15.5 57.999s27.5 23 51.5 23c14.667 0 27.5 -3.83301 38.5 -11.5s16.5 -17.834 16.5 -30.501c0 -19.333 -7.83301 -36 -23.5 -50s-40.5 -31.667 -74.5 -53c-22.667 -13.333 -41.667 -25.166 -57 -35.499
s-29.333 -21.833 -42 -34.5c-18.667 -18 -32.5 -36.333 -41.5 -55s-13.5 -40.334 -13.5 -65.001h386v102h-213z" />
    <glyph glyph-name="threesuperior" unicode="&#xb3;" horiz-adv-x="400" 
d="M6 457c0 -50.667 17.1709 -89.3311 51.5039 -115.998s79.166 -40 134.499 -40c63.333 0 113 12.667 149 38s54 62 54 110c0 20.667 -5.83301 38.667 -17.5 54s-27.834 26.666 -48.501 33.999c35.333 16 53 44 53 84c0 36 -15.833 64.667 -47.5 86s-74.5 32 -128.5 32
c-52 0 -95.333 -11.5 -130 -34.5s-53 -57.833 -55 -104.5h122c4 30 23.667 45 59 45c15.333 0 28 -3 38 -9s15 -15.333 15 -28c0 -16.667 -7.33301 -28.167 -22 -34.5s-34 -9.5 -58 -9.5v-73c12.667 0 23.167 -0.333008 31.5 -1s16.666 -2.5 24.999 -5.5
s15 -7.83301 20 -14.5s7.5 -15.334 7.5 -26.001c0 -13.333 -5.33301 -24.833 -16 -34.5s-25.334 -14.5 -44.001 -14.5c-20.667 0 -37 5.33301 -49 16c-10.667 10.667 -16 26 -16 46h-128z" />
    <glyph glyph-name="acute" unicode="&#xb4;" horiz-adv-x="333" 
d="M66 590h137l172 148h-209z" />
    <glyph glyph-name="mu" unicode="&#xb5;" 
d="M618 0v524.001h-208v-252c0 -42.667 -6 -74.334 -18 -95.001s-32.333 -31 -61 -31c-26 0 -45 7.16699 -57 21.5s-18 38.833 -18 73.5v283h-208v-702h208v166c37.333 0 68.833 6.66699 94.5 20s50.5 36.333 74.5 69v-77h193z" />
    <glyph glyph-name="paragraph" unicode="&#xb6;" horiz-adv-x="850" 
d="M410 556l83 -0.000976562v-734h164v734h50v164h-408c-36.667 0 -69.667 -2.66699 -99 -8s-55 -14.666 -77 -27.999s-39 -31.666 -51 -54.999s-18 -52.333 -18 -87c0 -52.667 17.5 -94.334 52.5 -125.001s81.5 -46 139.5 -46v-549h164v734z" />
    <glyph glyph-name="periodcentered" unicode="&#xb7;" horiz-adv-x="333" 
d="M166 126c35.333 0 65.833 12.833 91.5 38.5s38.5 56.167 38.5 91.5s-12.833 65.833 -38.5 91.5s-56.167 38.5 -91.5 38.5s-65.833 -12.833 -91.5 -38.5s-38.5 -56.167 -38.5 -91.5s12.833 -65.833 38.5 -91.5s56.167 -38.5 91.5 -38.5z" />
    <glyph glyph-name="periodcentered" unicode="&#x2219;" horiz-adv-x="333" 
d="M166 126c35.333 0 65.833 12.833 91.5 38.5s38.5 56.167 38.5 91.5s-12.833 65.833 -38.5 91.5s-56.167 38.5 -91.5 38.5s-65.833 -12.833 -91.5 -38.5s-38.5 -56.167 -38.5 -91.5s12.833 -65.833 38.5 -91.5s56.167 -38.5 91.5 -38.5z" />
    <glyph glyph-name="cedilla" unicode="&#xb8;" horiz-adv-x="333" 
d="M28 -204c25.333 -9.33301 48.1699 -16.334 68.5029 -21.001s41.166 -7 62.499 -7c28 0 54 6.83301 78 20.5s39.667 32.834 47 57.501c2 6 3 12 3 18c0 19.333 -7.5 36 -22.5 50s-32.167 22 -51.5 24c-2 0 -5.66699 0.333008 -11 1c-9.33301 1.33301 -16.333 2 -21 2
c-10.667 0 -20 -1.66699 -28 -5l39 64h-58l-55 -92l25 -24c13.333 6.66699 26 10 38 10c13.333 0 24.166 -3.83301 32.499 -11.5s12.5 -16.167 12.5 -25.5c0 -10 -4.33301 -18 -13 -24c-10 -7.33301 -23.333 -11 -40 -11c-13.333 0 -33 4 -59 12
c-10.667 4 -19.334 6.66699 -26.001 8z" />
    <glyph glyph-name="onesuperior" unicode="&#xb9;" horiz-adv-x="400" 
d="M321 739l-103.001 0.00195312c-7.33301 -34.667 -22.666 -59.334 -45.999 -74.001s-54 -22.334 -92 -23.001v-85h106v-247h135v429z" />
    <glyph glyph-name="ordmasculine" unicode="&#xba;" horiz-adv-x="400" 
d="M201 655c18 0 32.166 -7.5 42.499 -22.5s15.5 -33.833 15.5 -56.5c0 -28.667 -5.16699 -50 -15.5 -64s-24.833 -21 -43.5 -21c-18 0 -32.333 7.16699 -43 21.5s-16 35.5 -16 63.5c0 21.333 4.83301 39.833 14.5 55.5s24.834 23.5 45.501 23.5zM5.99902 570
c0 -52 18.167 -92.167 54.5 -120.5s82.833 -42.5 139.5 -42.5c57.333 0 104 14.333 140 43s54 70.667 54 126c0 49.333 -17.5 88.833 -52.5 118.5s-82.5 44.5 -142.5 44.5c-58.667 0 -105.5 -14.833 -140.5 -44.5s-52.5 -71.167 -52.5 -124.5z" />
    <glyph glyph-name="guillemotright" unicode="&#xbb;" 
d="M364 448v-129l101 -59l-101 -65v-131l183 120v146zM120 448v-129l101 -59l-101 -65v-131l183 120v146z" />
    <glyph glyph-name="onequarter" unicode="&#xbc;" horiz-adv-x="1000" 
d="M563 88h211v-88h129v88h57v93h-57v242h-126l-214 -235v-100zM774 310v-129h-109zM281 739l-103.001 0.00195312c-7.33301 -34.667 -22.666 -59.334 -45.999 -74.001s-54 -22.334 -92 -23.001v-85h106v-247h135v429zM330.999 -14.998l403 730h-98l-403 -730h98z" />
    <glyph glyph-name="onehalf" unicode="&#xbd;" horiz-adv-x="1000" 
d="M281 739l-103.001 0.00195312c-7.33301 -34.667 -22.666 -59.334 -45.999 -74.001s-54 -22.334 -92 -23.001v-85h106v-247h135v429zM745.999 102.002c9.33301 6.66699 26.333 16.3379 51 29.0049l41 22l9 5c38 21.333 66.333 41.166 85 59.499s28 43.166 28 74.499
c0 24 -4.83301 44.667 -14.5 62s-23.167 31.666 -40.5 42.999s-37 19.5 -59 24.5s-45.333 7.5 -70 7.5c-62 0 -109.5 -14 -142.5 -42s-50.167 -72.333 -51.5 -133h121c0 23.333 5.16699 42.666 15.5 57.999s27.5 23 51.5 23c14.667 0 27.5 -3.83301 38.5 -11.5
s16.5 -17.834 16.5 -30.501c0 -19.333 -7.83301 -36 -23.5 -50s-40.5 -31.667 -74.5 -53c-22.667 -13.333 -41.667 -25.166 -57 -35.499s-29.333 -21.833 -42 -34.5c-18.667 -18 -32.5 -36.333 -41.5 -55s-13.5 -40.334 -13.5 -65.001h386v102h-213zM290.999 -14.9941
l403 730h-98l-403 -730h98z" />
    <glyph glyph-name="threequarters" unicode="&#xbe;" horiz-adv-x="1000" 
d="M563 88h211v-88h129v88h57v93h-57v242h-126l-214 -235v-100zM774 310v-129h-109zM371 -15l403 730h-98l-403 -730h98zM40 433c0 -50.667 17.1709 -89.3311 51.5039 -115.998s79.166 -40 134.499 -40c63.333 0 113 12.667 149 38s54 62 54 110
c0 20.667 -5.83301 38.667 -17.5 54s-27.834 26.666 -48.501 33.999c35.333 16 53 44 53 84c0 36 -15.833 64.667 -47.5 86s-74.5 32 -128.5 32c-52 0 -95.333 -11.5 -130 -34.5s-53 -57.833 -55 -104.5h122c4 30 23.667 45 59 45c15.333 0 28 -3 38 -9s15 -15.333 15 -28
c0 -16.667 -7.33301 -28.167 -22 -34.5s-34 -9.5 -58 -9.5v-73c12.667 0 23.167 -0.333008 31.5 -1s16.666 -2.5 24.999 -5.5s15 -7.83301 20 -14.5s7.5 -15.334 7.5 -26.001c0 -13.333 -5.33301 -24.833 -16 -34.5s-25.334 -14.5 -44.001 -14.5
c-20.667 0 -37 5.33301 -49 16c-10.667 10.667 -16 26 -16 46h-128z" />
    <glyph glyph-name="questiondown" unicode="&#xbf;" horiz-adv-x="611" 
d="M224 254c0 -1.33301 0.334961 -4.33594 1.00195 -9.00293v-7c0 -22 -6.66699 -39.333 -20 -52s-34 -27 -62 -43c-18 -10 -32.833 -18.833 -44.5 -26.5s-22.834 -17.334 -33.501 -29.001s-19.167 -25.667 -25.5 -42s-9.5 -35.5 -9.5 -57.5
c0 -65.333 25.167 -115.666 75.5 -150.999s115.166 -53 194.499 -53c38 0 73.667 4.66699 107 14s63 23.666 89 42.999s46.667 43.833 62 73.5s24 63.834 26 102.501h-207c0 -27.333 -5.16699 -48 -15.5 -62s-26.833 -21 -49.5 -21c-20.667 0 -38.167 4.66699 -52.5 14
s-21.5 24 -21.5 44c0.666992 17.333 6 30.5 16 39.5s25.667 18.167 47 27.5c16.667 8 30.667 15.333 42 22s22 15.834 32 27.501s18.167 27.334 24.5 47.001s9.5 43.167 9.5 70.5v14c-0.666992 4.66699 -1 9.33398 -1 14.001h-184zM418.002 328.997v195h-206v-195h206z" />
    <glyph glyph-name="Agrave" unicode="&#xc0;" horiz-adv-x="778" 
d="M187 934l171 -148h137l-100 148h-208zM463 245h-149l73 258zM242 0l27 95h235l28 -95h235l-258 720h-240l-258 -720h231z" />
    <glyph glyph-name="Aacute" unicode="&#xc1;" horiz-adv-x="778" 
d="M289 786h137l172 148h-209zM463 245h-149l73 258zM242 0l27 95h235l28 -95h235l-258 720h-240l-258 -720h231z" />
    <glyph glyph-name="Acircumflex" unicode="&#xc2;" horiz-adv-x="778" 
d="M189 786h147l56 76l56 -76h148l-122 148h-164zM463 245h-149l73 258zM242 0l27 95h235l28 -95h235l-258 720h-240l-258 -720h231z" />
    <glyph glyph-name="Atilde" unicode="&#xc3;" horiz-adv-x="778" 
d="M508 925c-1.33301 -9.33301 -5.99902 -17.668 -13.999 -25.001s-18.333 -11 -31 -11c-6 0 -12.333 1 -19 3c-10 3.33301 -23 8 -39 14c-18 7.33301 -33 12.666 -45 15.999s-25.667 5 -41 5c-35.333 0 -63.5 -14.167 -84.5 -42.5s-33.833 -61.166 -38.5 -98.499h79v0
c4.66699 14.667 9.83398 25.5 15.501 32.5s14.834 10.5 27.501 10.5c12 0 28 -4.33301 48 -13c16.667 -7.33301 33.167 -13.166 49.5 -17.499s32.166 -6.5 47.499 -6.5c37.333 0 66.166 12.333 86.499 37s33.166 56.667 38.499 96h-80zM463.001 244.998h-149l73 258z
M242.001 -0.00195312l27 95h235l28 -95h235l-258 720h-240l-258 -720h231z" />
    <glyph glyph-name="Adieresis" unicode="&#xc4;" horiz-adv-x="778" 
d="M422 792h169v130h-169v-130zM363 792v130h-169v-130h169zM463 245h-149l73 258zM242 0l27 95h235l28 -95h235l-258 720h-240l-258 -720h231z" />
    <glyph glyph-name="Aring" unicode="&#xc5;" horiz-adv-x="778" 
d="M390 789c30.667 0 57 11 79 33s33 48.333 33 79s-11 57 -33 79s-48.333 33 -79 33s-57.167 -11 -79.5 -33s-33.5 -48.333 -33.5 -79s11.167 -57 33.5 -79s48.833 -33 79.5 -33zM390 953c14 0 26.167 -5.33301 36.5 -16s15.5 -22.667 15.5 -36s-5.16699 -25.333 -15.5 -36
s-22.5 -16 -36.5 -16s-26.333 5.16699 -37 15.5s-16 22.5 -16 36.5s5.33301 26.167 16 36.5s23 15.5 37 15.5zM463 245h-149l73 258zM242 0l27 95h235l28 -95h235l-258 720h-240l-258 -720h231z" />
    <glyph glyph-name="AE" unicode="&#xc6;" horiz-adv-x="1000" 
d="M395 552h64v-298h-150zM459 0h522v168h-306v113h241v168h-241v103h292v168h-724l-240 -720h231l31 104h194v-104z" />
    <glyph glyph-name="Ccedilla" unicode="&#xc7;" horiz-adv-x="778" 
d="M743 445c-9.33301 94 -44.8291 166.498 -106.496 217.498s-146.834 76.5 -255.501 76.5c-50 0 -96.833 -8.66699 -140.5 -26s-81.834 -42.666 -114.501 -75.999s-58.167 -73.333 -76.5 -120s-27.5 -98.667 -27.5 -156c0 -107.333 28.833 -194.333 86.5 -261
s137.5 -105 239.5 -115l-46 -77l25 -24c13.333 6.66699 26 10 38 10c13.333 0 24.166 -3.83301 32.499 -11.5s12.5 -16.167 12.5 -25.5c0 -10 -4.33301 -18 -13 -24c-10 -7.33301 -23.333 -11 -40 -11c-13.333 0 -33 4 -59 12c-10.667 4 -19.334 6.66699 -26.001 8l-21 -46
c25.333 -9.33301 48.166 -16.333 68.499 -21s41.166 -7 62.499 -7c28 0 54 6.83301 78 20.5s39.667 32.834 47 57.501c2 6 3 12 3 18c0 19.333 -7.5 36 -22.5 50s-32.167 22 -51.5 24c-2 0 -5.66699 0.333008 -11 1c-9.33301 1.33301 -16.333 2 -21 2
c-10.667 0 -20 -1.66699 -28 -5l27 45h1c95.333 0 173.833 26.5 235.5 79.5s97.834 125.833 108.501 218.5h-227c-4.66699 -36.667 -17 -66.167 -37 -88.5s-48 -33.5 -84 -33.5c-28.667 0 -52.5 5.16699 -71.5 15.5s-33.5 24.666 -43.5 42.999s-17 38.833 -21 61.5
s-6 48 -6 76c0 68.667 11.667 120.834 35 156.501s56 53.5 98 53.5c36.667 0 66.334 -10.333 89.001 -31s35.667 -49.667 39 -87h224z" />
    <glyph glyph-name="Egrave" unicode="&#xc8;" horiz-adv-x="722" 
d="M159 934l171 -148h137l-100 148h-208zM677 0v168h-365v113h297v168h-297v103h351v168h-587v-720h601z" />
    <glyph glyph-name="Eacute" unicode="&#xc9;" horiz-adv-x="722" 
d="M261 786h137l172 148h-209zM677 0v168h-365v113h297v168h-297v103h351v168h-587v-720h601z" />
    <glyph glyph-name="Ecircumflex" unicode="&#xca;" horiz-adv-x="722" 
d="M161 786h147l56 76l56 -76h148l-122 148h-164zM677 0v168h-365v113h297v168h-297v103h351v168h-587v-720h601z" />
    <glyph glyph-name="Edieresis" unicode="&#xcb;" horiz-adv-x="722" 
d="M394 792h169v130h-169v-130zM335 792v130h-169v-130h169zM677 0v168h-365v113h297v168h-297v103h351v168h-587v-720h601z" />
    <glyph glyph-name="Igrave" unicode="&#xcc;" horiz-adv-x="389" 
d="M-8 934l171 -148h137l-100 148h-208zM312 0v720h-236v-720h236z" />
    <glyph glyph-name="Iacute" unicode="&#xcd;" horiz-adv-x="389" 
d="M94 786h137l172 148h-209zM312 0v720h-236v-720h236z" />
    <glyph glyph-name="Icircumflex" unicode="&#xce;" horiz-adv-x="389" 
d="M-6 786h147l56 76l56 -76h148l-122 148h-164zM312 0v720h-236v-720h236z" />
    <glyph glyph-name="Idieresis" unicode="&#xcf;" horiz-adv-x="389" 
d="M227 792h169v130h-169v-130zM168 792v130h-169v-130h169zM312 0v720h-236v-720h236z" />
    <glyph glyph-name="Eth" unicode="&#xd0;" horiz-adv-x="778" 
d="M301 552h45c64.667 0 110 -13.333 136 -40s39 -76.667 39 -150c0 -66.667 -14.333 -115.667 -43 -147s-71 -47 -127 -47h-50v111h105v198h-105v75zM65 477l-65 -0.000976562v-198h65v-279h310c59.333 0 112.333 7 159 21s86.667 36 120 66s58.833 68.833 76.5 116.5
s26.5 104.834 26.5 171.501c0 116 -32.833 202.5 -98.5 259.5s-158.167 85.5 -277.5 85.5h-316v-243z" />
    <glyph glyph-name="Ntilde" unicode="&#xd1;" horiz-adv-x="833" 
d="M535 925c-1.33301 -9.33301 -5.99902 -17.668 -13.999 -25.001s-18.333 -11 -31 -11c-6 0 -12.333 1 -19 3c-10 3.33301 -23 8 -39 14c-18 7.33301 -33 12.666 -45 15.999s-25.667 5 -41 5c-35.333 0 -63.5 -14.167 -84.5 -42.5s-33.833 -61.166 -38.5 -98.499h79v0
c4.66699 14.667 9.83398 25.5 15.501 32.5s14.834 10.5 27.501 10.5c12 0 28 -4.33301 48 -13c16.667 -7.33301 33.167 -13.166 49.5 -17.499s32.166 -6.5 47.499 -6.5c37.333 0 66.166 12.333 86.499 37s33.166 56.667 38.499 96h-80zM290.001 719.998h-221v-720h226v228
l-9 164l257 -392h221v720h-226v-229l9 -164z" />
    <glyph glyph-name="Ograve" unicode="&#xd2;" horiz-adv-x="833" 
d="M214 934l171 -148h137l-100 148h-208zM414 563c25.333 0 47.1689 -5.5 65.502 -16.5s33.333 -26 45 -45s20.167 -40.333 25.5 -64s8 -48.167 8 -73.5c0 -63.333 -11.5 -113.666 -34.5 -150.999s-58.833 -56 -107.5 -56c-26.667 0 -49.334 6.16699 -68.001 18.5
s-33.334 28.666 -44.001 48.999s-18.167 42.333 -22.5 66s-6.5 48.167 -6.5 73.5c0 24.667 2.33301 48.667 7 72s12.5 44.5 23.5 63.5s25.5 34.333 43.5 46s39.667 17.5 65 17.5zM416.003 739c-55.333 0 -106.164 -8.66992 -152.497 -26.0029s-86.333 -42.5 -120 -75.5
s-59.5 -72.667 -77.5 -119s-27 -97.166 -27 -152.499c0 -60 9 -114 27 -162s43.667 -88.667 77 -122s73.166 -58.5 119.499 -75.5s97.5 -25.5 153.5 -25.5c53.333 0 103 8.5 149 25.5s86.167 42 120.5 75s61 73.333 80 121s28.5 101.5 28.5 161.5
c0 48.667 -7.83301 95.334 -23.5 140.001s-39.334 84.834 -71.001 120.501s-71.334 63.667 -119.001 84s-102.5 30.5 -164.5 30.5z" />
    <glyph glyph-name="Oacute" unicode="&#xd3;" horiz-adv-x="833" 
d="M316 786h137l172 148h-209zM414 563c25.333 0 47.1689 -5.5 65.502 -16.5s33.333 -26 45 -45s20.167 -40.333 25.5 -64s8 -48.167 8 -73.5c0 -63.333 -11.5 -113.666 -34.5 -150.999s-58.833 -56 -107.5 -56c-26.667 0 -49.334 6.16699 -68.001 18.5
s-33.334 28.666 -44.001 48.999s-18.167 42.333 -22.5 66s-6.5 48.167 -6.5 73.5c0 24.667 2.33301 48.667 7 72s12.5 44.5 23.5 63.5s25.5 34.333 43.5 46s39.667 17.5 65 17.5zM416.003 739c-55.333 0 -106.164 -8.66992 -152.497 -26.0029s-86.333 -42.5 -120 -75.5
s-59.5 -72.667 -77.5 -119s-27 -97.166 -27 -152.499c0 -60 9 -114 27 -162s43.667 -88.667 77 -122s73.166 -58.5 119.499 -75.5s97.5 -25.5 153.5 -25.5c53.333 0 103 8.5 149 25.5s86.167 42 120.5 75s61 73.333 80 121s28.5 101.5 28.5 161.5
c0 48.667 -7.83301 95.334 -23.5 140.001s-39.334 84.834 -71.001 120.501s-71.334 63.667 -119.001 84s-102.5 30.5 -164.5 30.5z" />
    <glyph glyph-name="Ocircumflex" unicode="&#xd4;" horiz-adv-x="833" 
d="M216 786h147l56 76l56 -76h148l-122 148h-164zM414 563c25.333 0 47.1689 -5.5 65.502 -16.5s33.333 -26 45 -45s20.167 -40.333 25.5 -64s8 -48.167 8 -73.5c0 -63.333 -11.5 -113.666 -34.5 -150.999s-58.833 -56 -107.5 -56c-26.667 0 -49.334 6.16699 -68.001 18.5
s-33.334 28.666 -44.001 48.999s-18.167 42.333 -22.5 66s-6.5 48.167 -6.5 73.5c0 24.667 2.33301 48.667 7 72s12.5 44.5 23.5 63.5s25.5 34.333 43.5 46s39.667 17.5 65 17.5zM416.003 739c-55.333 0 -106.164 -8.66992 -152.497 -26.0029s-86.333 -42.5 -120 -75.5
s-59.5 -72.667 -77.5 -119s-27 -97.166 -27 -152.499c0 -60 9 -114 27 -162s43.667 -88.667 77 -122s73.166 -58.5 119.499 -75.5s97.5 -25.5 153.5 -25.5c53.333 0 103 8.5 149 25.5s86.167 42 120.5 75s61 73.333 80 121s28.5 101.5 28.5 161.5
c0 48.667 -7.83301 95.334 -23.5 140.001s-39.334 84.834 -71.001 120.501s-71.334 63.667 -119.001 84s-102.5 30.5 -164.5 30.5z" />
    <glyph glyph-name="Otilde" unicode="&#xd5;" horiz-adv-x="833" 
d="M535 925c-1.33301 -9.33301 -5.99902 -17.668 -13.999 -25.001s-18.333 -11 -31 -11c-6 0 -12.333 1 -19 3c-10 3.33301 -23 8 -39 14c-18 7.33301 -33 12.666 -45 15.999s-25.667 5 -41 5c-35.333 0 -63.5 -14.167 -84.5 -42.5s-33.833 -61.166 -38.5 -98.499h79v0
c4.66699 14.667 9.83398 25.5 15.501 32.5s14.834 10.5 27.501 10.5c12 0 28 -4.33301 48 -13c16.667 -7.33301 33.167 -13.166 49.5 -17.499s32.166 -6.5 47.499 -6.5c37.333 0 66.166 12.333 86.499 37s33.166 56.667 38.499 96h-80zM414.001 562.998
c25.333 0 47.1689 -5.5 65.502 -16.5s33.333 -26 45 -45s20.167 -40.333 25.5 -64s8 -48.167 8 -73.5c0 -63.333 -11.5 -113.666 -34.5 -150.999s-58.833 -56 -107.5 -56c-26.667 0 -49.334 6.16699 -68.001 18.5s-33.334 28.666 -44.001 48.999s-18.167 42.333 -22.5 66
s-6.5 48.167 -6.5 73.5c0 24.667 2.33301 48.667 7 72s12.5 44.5 23.5 63.5s25.5 34.333 43.5 46s39.667 17.5 65 17.5zM416.004 738.998c-55.333 0 -106.164 -8.66992 -152.497 -26.0029s-86.333 -42.5 -120 -75.5s-59.5 -72.667 -77.5 -119s-27 -97.166 -27 -152.499
c0 -60 9 -114 27 -162s43.667 -88.667 77 -122s73.166 -58.5 119.499 -75.5s97.5 -25.5 153.5 -25.5c53.333 0 103 8.5 149 25.5s86.167 42 120.5 75s61 73.333 80 121s28.5 101.5 28.5 161.5c0 48.667 -7.83301 95.334 -23.5 140.001s-39.334 84.834 -71.001 120.501
s-71.334 63.667 -119.001 84s-102.5 30.5 -164.5 30.5z" />
    <glyph glyph-name="Odieresis" unicode="&#xd6;" horiz-adv-x="833" 
d="M449 792h169v130h-169v-130zM390 792v130h-169v-130h169zM414 563c25.333 0 47.1689 -5.5 65.502 -16.5s33.333 -26 45 -45s20.167 -40.333 25.5 -64s8 -48.167 8 -73.5c0 -63.333 -11.5 -113.666 -34.5 -150.999s-58.833 -56 -107.5 -56
c-26.667 0 -49.334 6.16699 -68.001 18.5s-33.334 28.666 -44.001 48.999s-18.167 42.333 -22.5 66s-6.5 48.167 -6.5 73.5c0 24.667 2.33301 48.667 7 72s12.5 44.5 23.5 63.5s25.5 34.333 43.5 46s39.667 17.5 65 17.5zM416.003 739
c-55.333 0 -106.164 -8.66992 -152.497 -26.0029s-86.333 -42.5 -120 -75.5s-59.5 -72.667 -77.5 -119s-27 -97.166 -27 -152.499c0 -60 9 -114 27 -162s43.667 -88.667 77 -122s73.166 -58.5 119.499 -75.5s97.5 -25.5 153.5 -25.5c53.333 0 103 8.5 149 25.5
s86.167 42 120.5 75s61 73.333 80 121s28.5 101.5 28.5 161.5c0 48.667 -7.83301 95.334 -23.5 140.001s-39.334 84.834 -71.001 120.501s-71.334 63.667 -119.001 84s-102.5 30.5 -164.5 30.5z" />
    <glyph glyph-name="multiply" unicode="&#xd7;" horiz-adv-x="660" 
d="M330 172l169 -169l82 81l-170 170l170 169l-82 82l-169 -170l-170 170l-81 -82l170 -170l-170 -170l81 -80z" />
    <glyph glyph-name="Oslash" unicode="&#xd8;" horiz-adv-x="833" 
d="M290 254c-6 16 -10 32.5 -12 49.5s-3 37.167 -3 60.5c0 24.667 2.33301 48.667 7 72s12.5 44.5 23.5 63.5s25.5 34.333 43.5 46s39.667 17.5 65 17.5c33.333 0 60.333 -9 81 -27zM546 456c4.66699 -14 7.83203 -28.5 9.49902 -43.5s2.5 -31.167 2.5 -48.5
c0 -62 -12.333 -112 -37 -150s-59.667 -57 -105 -57c-27.333 0 -51.666 7.33301 -72.999 22zM749.998 733l-75 50.998l-66 -91c-58 30.667 -122.333 46 -193 46c-55.333 0 -106.166 -8.66699 -152.499 -26s-86.333 -42.5 -120 -75.5s-59.5 -72.667 -77.5 -119
s-27 -97.166 -27 -152.499c0 -67.333 10.167 -125.166 30.5 -173.499s49.166 -88.833 86.499 -121.5l-72 -99l73 -48l71 98c24 -12.667 51.167 -22.667 81.5 -30s65.833 -11 106.5 -11c54 0 104 8.5 150 25.5s86.167 41.833 120.5 74.5s60.833 73 79.5 121s28 102 28 162
c0 54 -10.5 106.667 -31.5 158s-47.833 91 -80.5 119z" />
    <glyph glyph-name="Ugrave" unicode="&#xd9;" horiz-adv-x="833" 
d="M214 934l171 -148h137l-100 148h-208zM70 314c0 -61.333 7.50098 -113.333 22.501 -156s37.167 -77 66.5 -103s65.333 -44.833 108 -56.5s92.667 -17.5 150 -17.5c120 0 207.667 26.5 263 79.5s83 137.167 83 252.5v407h-236v-431c0 -42 -8.33301 -74.5 -25 -97.5
s-45 -34.5 -85 -34.5c-23.333 0 -42.5 3.33301 -57.5 10s-26.333 16 -34 28s-12.834 25.667 -15.501 41s-4 33 -4 53v431h-236v-406z" />
    <glyph glyph-name="Uacute" unicode="&#xda;" horiz-adv-x="833" 
d="M316 786h137l172 148h-209zM70 314c0 -61.333 7.50098 -113.333 22.501 -156s37.167 -77 66.5 -103s65.333 -44.833 108 -56.5s92.667 -17.5 150 -17.5c120 0 207.667 26.5 263 79.5s83 137.167 83 252.5v407h-236v-431c0 -42 -8.33301 -74.5 -25 -97.5
s-45 -34.5 -85 -34.5c-23.333 0 -42.5 3.33301 -57.5 10s-26.333 16 -34 28s-12.834 25.667 -15.501 41s-4 33 -4 53v431h-236v-406z" />
    <glyph glyph-name="Ucircumflex" unicode="&#xdb;" horiz-adv-x="833" 
d="M216 786h147l56 76l56 -76h148l-122 148h-164zM70 314c0 -61.333 7.50098 -113.333 22.501 -156s37.167 -77 66.5 -103s65.333 -44.833 108 -56.5s92.667 -17.5 150 -17.5c120 0 207.667 26.5 263 79.5s83 137.167 83 252.5v407h-236v-431
c0 -42 -8.33301 -74.5 -25 -97.5s-45 -34.5 -85 -34.5c-23.333 0 -42.5 3.33301 -57.5 10s-26.333 16 -34 28s-12.834 25.667 -15.501 41s-4 33 -4 53v431h-236v-406z" />
    <glyph glyph-name="Udieresis" unicode="&#xdc;" horiz-adv-x="833" 
d="M449 792h169v130h-169v-130zM390 792v130h-169v-130h169zM70 314c0 -61.333 7.50098 -113.333 22.501 -156s37.167 -77 66.5 -103s65.333 -44.833 108 -56.5s92.667 -17.5 150 -17.5c120 0 207.667 26.5 263 79.5s83 137.167 83 252.5v407h-236v-431
c0 -42 -8.33301 -74.5 -25 -97.5s-45 -34.5 -85 -34.5c-23.333 0 -42.5 3.33301 -57.5 10s-26.333 16 -34 28s-12.834 25.667 -15.501 41s-4 33 -4 53v431h-236v-406z" />
    <glyph glyph-name="Yacute" unicode="&#xdd;" horiz-adv-x="778" 
d="M289 786h137l172 148h-209zM507 266l268 454h-260l-124 -244l-124 244h-264l268 -458v-262h236v266z" />
    <glyph glyph-name="Thorn" unicode="&#xde;" horiz-adv-x="722" 
d="M293 292l0.000976562 159.999h67c14.667 0 29.167 -1 43.5 -3s27.666 -5.66699 39.999 -11s22.5 -13 30.5 -23s12 -23 12 -39c0 -29.333 -8.5 -50.666 -25.5 -63.999s-40.167 -20 -69.5 -20h-98zM293.001 -0.000976562v124h119c100.667 0 175.667 22.167 225 66.5
s74 106.5 74 186.5c0 76 -25.833 135.5 -77.5 178.5s-128.167 64.5 -229.5 64.5h-111v100h-236v-720h236z" />
    <glyph glyph-name="germandbls" unicode="&#xdf;" 
d="M311 338c39.333 0 67.1689 -9.16602 83.502 -27.499s24.5 -46.5 24.5 -84.5c0 -35.333 -6 -61.833 -18 -79.5s-32.667 -26.5 -62 -26.5c-9.33301 0 -19.333 1 -30 3v-129c29.333 -6 58 -9 86 -9c31.333 0 61 5 89 15s52.667 24.833 74 44.5s38.166 44 50.499 73
s18.5 61.833 18.5 98.5c0 51.333 -10 92 -30 122s-53.667 54 -101 72c59.333 28 89 75.333 89 142c0 60 -24 106.167 -72 138.5s-111 48.5 -189 48.5c-88.667 0 -156.834 -19.833 -204.501 -59.5s-71.5 -103.167 -71.5 -190.5v-489h208v496c0 17.333 0.5 31.666 1.5 42.999
s3.5 21.333 7.5 30c8.66699 20 27.667 30 57 30c22.667 0 39.667 -7 51 -21s17 -32 17 -54c0 -48 -26.333 -72 -79 -72v-114z" />
    <glyph glyph-name="agrave" unicode="&#xe0;" 
d="M131 738l171 -148h137l-100 148h-208zM634 0l0.000976562 9.99902c-12.667 10 -20.5 19.5 -23.5 28.5s-4.5 21.833 -4.5 38.5v245c0 37.333 -2.5 68.166 -7.5 92.499s-16 46 -33 65s-43.333 33.667 -79 44s-83.5 15.5 -143.5 15.5c-100 0 -172.667 -15 -218 -45
s-68 -73.667 -68 -131h200c2 20 10 33.5 24 40.5s30.333 10.5 49 10.5c16.667 0 32.167 -3 46.5 -9s21.5 -17.333 21.5 -34c0 -17.333 -9.83301 -29.166 -29.5 -35.499s-51.834 -12.166 -96.501 -17.499c-37.333 -4.66699 -68.666 -9.5 -93.999 -14.5
s-49.833 -13.333 -73.5 -25s-42.834 -28.667 -57.501 -51s-22 -50.5 -22 -84.5c0 -51.333 17.833 -90.5 53.5 -117.5s80.167 -40.5 133.5 -40.5c41.333 0 77.5 5.33301 108.5 16s60.5 29 88.5 55l10 -56h215zM306.001 102.999c-20.667 0 -36.833 4 -48.5 12
s-17.5 18.667 -17.5 32c0 20 6.66699 33.833 20 41.5s35 14.834 65 21.501c32.667 7.33301 57 14.666 73 21.999v-9l1 -9c0 -34 -7.5 -61 -22.5 -81s-38.5 -30 -70.5 -30z" />
    <glyph glyph-name="aacute" unicode="&#xe1;" 
d="M233 590h137l172 148h-209zM634 0l0.000976562 9.99902c-12.667 10 -20.5 19.5 -23.5 28.5s-4.5 21.833 -4.5 38.5v245c0 37.333 -2.5 68.166 -7.5 92.499s-16 46 -33 65s-43.333 33.667 -79 44s-83.5 15.5 -143.5 15.5c-100 0 -172.667 -15 -218 -45
s-68 -73.667 -68 -131h200c2 20 10 33.5 24 40.5s30.333 10.5 49 10.5c16.667 0 32.167 -3 46.5 -9s21.5 -17.333 21.5 -34c0 -17.333 -9.83301 -29.166 -29.5 -35.499s-51.834 -12.166 -96.501 -17.499c-37.333 -4.66699 -68.666 -9.5 -93.999 -14.5
s-49.833 -13.333 -73.5 -25s-42.834 -28.667 -57.501 -51s-22 -50.5 -22 -84.5c0 -51.333 17.833 -90.5 53.5 -117.5s80.167 -40.5 133.5 -40.5c41.333 0 77.5 5.33301 108.5 16s60.5 29 88.5 55l10 -56h215zM306.001 102.999c-20.667 0 -36.833 4 -48.5 12
s-17.5 18.667 -17.5 32c0 20 6.66699 33.833 20 41.5s35 14.834 65 21.501c32.667 7.33301 57 14.666 73 21.999v-9l1 -9c0 -34 -7.5 -61 -22.5 -81s-38.5 -30 -70.5 -30z" />
    <glyph glyph-name="acircumflex" unicode="&#xe2;" 
d="M133 590h147l56 76l56 -76h148l-122 148h-164zM634 0l0.000976562 9.99902c-12.667 10 -20.5 19.5 -23.5 28.5s-4.5 21.833 -4.5 38.5v245c0 37.333 -2.5 68.166 -7.5 92.499s-16 46 -33 65s-43.333 33.667 -79 44s-83.5 15.5 -143.5 15.5c-100 0 -172.667 -15 -218 -45
s-68 -73.667 -68 -131h200c2 20 10 33.5 24 40.5s30.333 10.5 49 10.5c16.667 0 32.167 -3 46.5 -9s21.5 -17.333 21.5 -34c0 -17.333 -9.83301 -29.166 -29.5 -35.499s-51.834 -12.166 -96.501 -17.499c-37.333 -4.66699 -68.666 -9.5 -93.999 -14.5
s-49.833 -13.333 -73.5 -25s-42.834 -28.667 -57.501 -51s-22 -50.5 -22 -84.5c0 -51.333 17.833 -90.5 53.5 -117.5s80.167 -40.5 133.5 -40.5c41.333 0 77.5 5.33301 108.5 16s60.5 29 88.5 55l10 -56h215zM306.001 102.999c-20.667 0 -36.833 4 -48.5 12
s-17.5 18.667 -17.5 32c0 20 6.66699 33.833 20 41.5s35 14.834 65 21.501c32.667 7.33301 57 14.666 73 21.999v-9l1 -9c0 -34 -7.5 -61 -22.5 -81s-38.5 -30 -70.5 -30z" />
    <glyph glyph-name="atilde" unicode="&#xe3;" 
d="M452 729c-1.33301 -9.33301 -5.99902 -17.668 -13.999 -25.001s-18.333 -11 -31 -11c-6 0 -12.333 1 -19 3c-10 3.33301 -23 8 -39 14c-18 7.33301 -33 12.666 -45 15.999s-25.667 5 -41 5c-35.333 0 -63.5 -14.167 -84.5 -42.5s-33.833 -61.166 -38.5 -98.499h79v0
c4.66699 14.667 9.83398 25.5 15.501 32.5s14.834 10.5 27.501 10.5c12 0 28 -4.33301 48 -13c16.667 -7.33301 33.167 -13.166 49.5 -17.499s32.166 -6.5 47.499 -6.5c37.333 0 66.166 12.333 86.499 37s33.166 56.667 38.499 96h-80zM634.001 -0.00195312
l0.000976562 9.99902c-12.667 10 -20.5 19.5 -23.5 28.5s-4.5 21.833 -4.5 38.5v245c0 37.333 -2.5 68.166 -7.5 92.499s-16 46 -33 65s-43.333 33.667 -79 44s-83.5 15.5 -143.5 15.5c-100 0 -172.667 -15 -218 -45s-68 -73.667 -68 -131h200c2 20 10 33.5 24 40.5
s30.333 10.5 49 10.5c16.667 0 32.167 -3 46.5 -9s21.5 -17.333 21.5 -34c0 -17.333 -9.83301 -29.166 -29.5 -35.499s-51.834 -12.166 -96.501 -17.499c-37.333 -4.66699 -68.666 -9.5 -93.999 -14.5s-49.833 -13.333 -73.5 -25s-42.834 -28.667 -57.501 -51
s-22 -50.5 -22 -84.5c0 -51.333 17.833 -90.5 53.5 -117.5s80.167 -40.5 133.5 -40.5c41.333 0 77.5 5.33301 108.5 16s60.5 29 88.5 55l10 -56h215zM306.002 102.997c-20.667 0 -36.833 4 -48.5 12s-17.5 18.667 -17.5 32c0 20 6.66699 33.833 20 41.5s35 14.834 65 21.501
c32.667 7.33301 57 14.666 73 21.999v-9l1 -9c0 -34 -7.5 -61 -22.5 -81s-38.5 -30 -70.5 -30z" />
    <glyph glyph-name="adieresis" unicode="&#xe4;" 
d="M366 596h169v130h-169v-130zM307 596v130h-169v-130h169zM634 0l0.000976562 9.99902c-12.667 10 -20.5 19.5 -23.5 28.5s-4.5 21.833 -4.5 38.5v245c0 37.333 -2.5 68.166 -7.5 92.499s-16 46 -33 65s-43.333 33.667 -79 44s-83.5 15.5 -143.5 15.5
c-100 0 -172.667 -15 -218 -45s-68 -73.667 -68 -131h200c2 20 10 33.5 24 40.5s30.333 10.5 49 10.5c16.667 0 32.167 -3 46.5 -9s21.5 -17.333 21.5 -34c0 -17.333 -9.83301 -29.166 -29.5 -35.499s-51.834 -12.166 -96.501 -17.499
c-37.333 -4.66699 -68.666 -9.5 -93.999 -14.5s-49.833 -13.333 -73.5 -25s-42.834 -28.667 -57.501 -51s-22 -50.5 -22 -84.5c0 -51.333 17.833 -90.5 53.5 -117.5s80.167 -40.5 133.5 -40.5c41.333 0 77.5 5.33301 108.5 16s60.5 29 88.5 55l10 -56h215zM306.001 102.999
c-20.667 0 -36.833 4 -48.5 12s-17.5 18.667 -17.5 32c0 20 6.66699 33.833 20 41.5s35 14.834 65 21.501c32.667 7.33301 57 14.666 73 21.999v-9l1 -9c0 -34 -7.5 -61 -22.5 -81s-38.5 -30 -70.5 -30z" />
    <glyph glyph-name="aring" unicode="&#xe5;" 
d="M334 593c30.667 0 57 11 79 33s33 48.333 33 79s-11 57 -33 79s-48.333 33 -79 33s-57.167 -11 -79.5 -33s-33.5 -48.333 -33.5 -79s11.167 -57 33.5 -79s48.833 -33 79.5 -33zM334 757c14 0 26.167 -5.33301 36.5 -16s15.5 -22.667 15.5 -36s-5.16699 -25.333 -15.5 -36
s-22.5 -16 -36.5 -16s-26.333 5.16699 -37 15.5s-16 22.5 -16 36.5s5.33301 26.167 16 36.5s23 15.5 37 15.5zM634 0l0.000976562 9.99902c-12.667 10 -20.5 19.5 -23.5 28.5s-4.5 21.833 -4.5 38.5v245c0 37.333 -2.5 68.166 -7.5 92.499s-16 46 -33 65
s-43.333 33.667 -79 44s-83.5 15.5 -143.5 15.5c-100 0 -172.667 -15 -218 -45s-68 -73.667 -68 -131h200c2 20 10 33.5 24 40.5s30.333 10.5 49 10.5c16.667 0 32.167 -3 46.5 -9s21.5 -17.333 21.5 -34c0 -17.333 -9.83301 -29.166 -29.5 -35.499
s-51.834 -12.166 -96.501 -17.499c-37.333 -4.66699 -68.666 -9.5 -93.999 -14.5s-49.833 -13.333 -73.5 -25s-42.834 -28.667 -57.501 -51s-22 -50.5 -22 -84.5c0 -51.333 17.833 -90.5 53.5 -117.5s80.167 -40.5 133.5 -40.5c41.333 0 77.5 5.33301 108.5 16
s60.5 29 88.5 55l10 -56h215zM306.001 102.999c-20.667 0 -36.833 4 -48.5 12s-17.5 18.667 -17.5 32c0 20 6.66699 33.833 20 41.5s35 14.834 65 21.501c32.667 7.33301 57 14.666 73 21.999v-9l1 -9c0 -34 -7.5 -61 -22.5 -81s-38.5 -30 -70.5 -30z" />
    <glyph glyph-name="ae" unicode="&#xe6;" horiz-adv-x="1000" 
d="M314 206l7.00098 1.99902c39.333 8 67.666 16.667 84.999 26v-11c0.666992 -4.66699 1 -8 1 -10c0 -36.667 -8.16699 -64.167 -24.5 -82.5s-42.5 -27.5 -78.5 -27.5c-16 0 -29.667 4.33301 -41 13s-17 20.667 -17 36c0 16.667 6.33301 28.834 19 36.501s29 13.5 49 17.5z
M578.001 320.999c2.66699 26.667 11.499 48.5 26.499 65.5s36.5 25.5 64.5 25.5c27.333 0 48.833 -8.66699 64.5 -26s23.834 -39 24.501 -65h-180zM284 316.999c-34.667 -4 -65.502 -8.83594 -92.502 -14.5029s-52.167 -14.5 -75.5 -26.5s-42.166 -28.667 -56.499 -50
s-21.5 -48 -21.5 -80c0 -54.667 19.333 -95.167 58 -121.5s92.334 -39.5 161.001 -39.5c38 0 76.667 5.83301 116 17.5s76 29.834 110 54.501c16.667 -20.667 40 -37.834 70 -51.501s64.333 -20.5 103 -20.5c76.667 0 137.667 12.333 183 37
c48.667 27.333 82.667 72 102 134h-189c-5.33301 -14 -14.166 -24.833 -26.499 -32.5s-30.833 -11.5 -55.5 -11.5c-29.333 0 -51.833 9.33301 -67.5 28s-23.5 43.667 -23.5 75h377v12c0.666992 4 1 8 1 12c0 39.333 -5.83301 77 -17.5 113s-29 68.167 -52 96.5
s-51.667 50.5 -86 66.5s-73.5 24 -117.5 24c-31.333 0 -61.833 -4.66699 -91.5 -14s-55.167 -23.666 -76.5 -42.999c-24 20.667 -53.167 35.334 -87.5 44.001s-70.833 13 -109.5 13c-32.667 0 -63.834 -3.66699 -93.501 -11s-56.334 -18.333 -80.001 -33
s-42.667 -33.167 -57 -55.5s-22.166 -48.166 -23.499 -77.499h195c2.66699 21.333 10.667 35 24 41s28.666 9 45.999 9c26.667 0 46.334 -2.66699 59.001 -8s19 -17.333 19 -36c0 -13.333 -7 -23.333 -21 -30s-31.333 -11.667 -52 -15z" />
    <glyph glyph-name="ccedilla" unicode="&#xe7;" 
d="M618 324c-3.33301 37.333 -13.4941 69.8281 -30.4941 97.4951s-38.667 50.167 -65 67.5s-55.833 30 -88.5 38s-67 12 -103 12c-43.333 0 -83.333 -6.33301 -120 -19s-68.334 -31.167 -95.001 -55.5s-47.334 -54 -62.001 -89s-22 -74.5 -22 -118.5
c0 -79.333 24.333 -142.666 73 -189.999s111.667 -73.666 189 -78.999l-48 -80l25 -24c13.333 6.66699 26 10 38 10c13.333 0 24.166 -3.83301 32.499 -11.5s12.5 -16.167 12.5 -25.5c0 -10 -4.33301 -18 -13 -24c-10 -7.33301 -23.333 -11 -40 -11c-13.333 0 -33 4 -59 12
c-10.667 4 -19.334 6.66699 -26.001 8l-21 -46c25.333 -9.33301 48.166 -16.333 68.499 -21s41.166 -7 62.499 -7c28 0 54 6.83301 78 20.5s39.667 32.834 47 57.501c2 6 3 12 3 18c0 19.333 -7.5 36 -22.5 50s-32.167 22 -51.5 24c-2 0 -5.66699 0.333008 -11 1
c-9.33301 1.33301 -16.333 2 -21 2c-10.667 0 -20 -1.66699 -28 -5l31 50c35.333 1.33301 68.333 6.33301 99 15s58.167 21.834 82.5 39.501s44.333 40 60 67s25.5 58.833 29.5 95.5h-210c-3.33301 -23.333 -11.333 -42.166 -24 -56.499s-31.667 -21.5 -57 -21.5
c-30 0 -52.667 11.667 -68 35s-23 55.333 -23 96c0 18 1.16699 35 3.5 51s6.83301 31 13.5 45s16 25.333 28 34s27.333 13 46 13c23.333 0 41.333 -7 54 -21c14 -13.333 21.333 -31.333 22 -54h211z" />
    <glyph glyph-name="egrave" unicode="&#xe8;" 
d="M131 738l171 -148h137l-100 148h-208zM239 321c0 28.667 8.5 51 25.5 67s40.833 24 71.5 24c24.667 0 46.167 -9.16699 64.5 -27.5s27.5 -39.5 27.5 -63.5h-189zM636 215c0 48 -7 92.0029 -21 132.003s-34.5 74.333 -61.5 103s-59.5 50.667 -97.5 66s-80.667 23 -128 23
c-42 0 -81 -6.5 -117 -19.5s-67.5 -32 -94.5 -57s-48 -55 -63 -90s-22.5 -73.5 -22.5 -115.5c0 -42.667 7.5 -81 22.5 -115s36 -62.667 63 -86s58.667 -41 95 -53s75.5 -18 117.5 -18c32 0 63.167 3.16699 93.5 9.5s58.833 16.166 85.5 29.499s49.667 31.166 69 53.499
s33.333 49.166 42 80.499h-199c-7.33301 -15.333 -17.833 -26.833 -31.5 -34.5s-29.167 -11.5 -46.5 -11.5c-28 0 -52.167 9.66699 -72.5 29s-30.5 44 -30.5 74h397z" />
    <glyph glyph-name="eacute" unicode="&#xe9;" 
d="M233 590h137l172 148h-209zM239 321c0 28.667 8.5 51 25.5 67s40.833 24 71.5 24c24.667 0 46.167 -9.16699 64.5 -27.5s27.5 -39.5 27.5 -63.5h-189zM636 215c0 48 -7 92.0029 -21 132.003s-34.5 74.333 -61.5 103s-59.5 50.667 -97.5 66s-80.667 23 -128 23
c-42 0 -81 -6.5 -117 -19.5s-67.5 -32 -94.5 -57s-48 -55 -63 -90s-22.5 -73.5 -22.5 -115.5c0 -42.667 7.5 -81 22.5 -115s36 -62.667 63 -86s58.667 -41 95 -53s75.5 -18 117.5 -18c32 0 63.167 3.16699 93.5 9.5s58.833 16.166 85.5 29.499s49.667 31.166 69 53.499
s33.333 49.166 42 80.499h-199c-7.33301 -15.333 -17.833 -26.833 -31.5 -34.5s-29.167 -11.5 -46.5 -11.5c-28 0 -52.167 9.66699 -72.5 29s-30.5 44 -30.5 74h397z" />
    <glyph glyph-name="ecircumflex" unicode="&#xea;" 
d="M133 590h147l56 76l56 -76h148l-122 148h-164zM239 321c0 28.667 8.5 51 25.5 67s40.833 24 71.5 24c24.667 0 46.167 -9.16699 64.5 -27.5s27.5 -39.5 27.5 -63.5h-189zM636 215c0 48 -7 92.0029 -21 132.003s-34.5 74.333 -61.5 103s-59.5 50.667 -97.5 66
s-80.667 23 -128 23c-42 0 -81 -6.5 -117 -19.5s-67.5 -32 -94.5 -57s-48 -55 -63 -90s-22.5 -73.5 -22.5 -115.5c0 -42.667 7.5 -81 22.5 -115s36 -62.667 63 -86s58.667 -41 95 -53s75.5 -18 117.5 -18c32 0 63.167 3.16699 93.5 9.5s58.833 16.166 85.5 29.499
s49.667 31.166 69 53.499s33.333 49.166 42 80.499h-199c-7.33301 -15.333 -17.833 -26.833 -31.5 -34.5s-29.167 -11.5 -46.5 -11.5c-28 0 -52.167 9.66699 -72.5 29s-30.5 44 -30.5 74h397z" />
    <glyph glyph-name="edieresis" unicode="&#xeb;" 
d="M366 596h169v130h-169v-130zM307 596v130h-169v-130h169zM239 321c0 28.667 8.5 51 25.5 67s40.833 24 71.5 24c24.667 0 46.167 -9.16699 64.5 -27.5s27.5 -39.5 27.5 -63.5h-189zM636 215c0 48 -7 92.0029 -21 132.003s-34.5 74.333 -61.5 103s-59.5 50.667 -97.5 66
s-80.667 23 -128 23c-42 0 -81 -6.5 -117 -19.5s-67.5 -32 -94.5 -57s-48 -55 -63 -90s-22.5 -73.5 -22.5 -115.5c0 -42.667 7.5 -81 22.5 -115s36 -62.667 63 -86s58.667 -41 95 -53s75.5 -18 117.5 -18c32 0 63.167 3.16699 93.5 9.5s58.833 16.166 85.5 29.499
s49.667 31.166 69 53.499s33.333 49.166 42 80.499h-199c-7.33301 -15.333 -17.833 -26.833 -31.5 -34.5s-29.167 -11.5 -46.5 -11.5c-28 0 -52.167 9.66699 -72.5 29s-30.5 44 -30.5 74h397z" />
    <glyph glyph-name="igrave" unicode="&#xec;" horiz-adv-x="333" 
d="M-36 738l171 -148h137l-100 148h-208zM270 0v524h-208v-524h208z" />
    <glyph glyph-name="iacute" unicode="&#xed;" horiz-adv-x="333" 
d="M66 590h137l172 148h-209zM270 0v524h-208v-524h208z" />
    <glyph glyph-name="icircumflex" unicode="&#xee;" horiz-adv-x="333" 
d="M-34 590h147l56 76l56 -76h148l-122 148h-164zM270 0v524h-208v-524h208z" />
    <glyph glyph-name="idieresis" unicode="&#xef;" horiz-adv-x="333" 
d="M199 596h169v130h-169v-130zM140 596v130h-169v-130h169zM270 0v524h-208v-524h208z" />
    <glyph glyph-name="eth" unicode="&#xf0;" 
d="M335 399c27.333 0 48.834 -12.332 64.501 -36.999s23.5 -56.334 23.5 -95.001c0 -48 -7.83301 -83.667 -23.5 -107s-37.834 -35 -66.501 -35c-28 0 -50 11.667 -66 35s-24 59 -24 107c0 16 1.66699 31.667 5 47s8.33301 29.333 15 42s16.167 23 28.5 31
s26.833 12 43.5 12zM367.001 591.001c17.333 -27.333 29 -58.333 35 -93c-38.667 21.333 -79 32 -121 32c-34 0 -66 -6.33301 -96 -19s-56.167 -31 -78.5 -55s-39.833 -53 -52.5 -87s-19 -71.667 -19 -113c0 -86.667 27.833 -153.5 83.5 -200.5s127.167 -70.5 214.5 -70.5
c42.667 0 82.167 5.83301 118.5 17.5s67.833 29.167 94.5 52.5s47.5 52.833 62.5 88.5s22.5 76.834 22.5 123.501c0 71.333 -13 139.5 -39 204.5s-59.667 122.5 -101 172.5l67 28l-48 54l-68 -29c-16 16 -32.667 30 -50 42l-123 -52c21.333 -14.667 39 -28.334 53 -41.001
l-71 -30l43 -56z" />
    <glyph glyph-name="ntilde" unicode="&#xf1;" 
d="M452 729c-1.33301 -9.33301 -5.99902 -17.668 -13.999 -25.001s-18.333 -11 -31 -11c-6 0 -12.333 1 -19 3c-10 3.33301 -23 8 -39 14c-18 7.33301 -33 12.666 -45 15.999s-25.667 5 -41 5c-35.333 0 -63.5 -14.167 -84.5 -42.5s-33.833 -61.166 -38.5 -98.499h79v0
c4.66699 14.667 9.83398 25.5 15.501 32.5s14.834 10.5 27.501 10.5c12 0 28 -4.33301 48 -13c16.667 -7.33301 33.167 -13.166 49.5 -17.499s32.166 -6.5 47.499 -6.5c37.333 0 66.166 12.333 86.499 37s33.166 56.667 38.499 96h-80zM48.001 -0.00195312
l208.001 0.000976562v267c0 36 6 63 18 81s33 27 63 27c27.333 0 46.333 -8.83301 57 -26.5s16 -41.5 16 -71.5v-277h208v314c0 73.333 -16.833 129.166 -50.5 167.499s-84.5 57.5 -152.5 57.5c-38 0 -70.833 -8 -98.5 -24s-53.834 -40.333 -78.501 -73v82h-190v-524z" />
    <glyph glyph-name="ograve" unicode="&#xf2;" 
d="M131 738l171 -148h137l-100 148h-208zM335 399c27.333 0 48.834 -12.332 64.501 -36.999s23.5 -56.334 23.5 -95.001c0 -48 -7.83301 -83.667 -23.5 -107s-37.834 -35 -66.501 -35c-28 0 -50 11.667 -66 35s-24 59 -24 107c0 16 1.66699 31.667 5 47
s8.33301 29.333 15 42s16.167 23 28.5 31s26.833 12 43.5 12zM35.001 256.001c0 -86.667 27.833 -153.501 83.5 -200.501s127.167 -70.5 214.5 -70.5c42.667 0 82.167 5.83301 118.5 17.5s67.833 29.167 94.5 52.5s47.5 52.833 62.5 88.5s22.5 76.834 22.5 123.501
c0 82 -26.833 147.833 -80.5 197.5s-126.5 74.5 -218.5 74.5c-90 0 -162 -24.833 -216 -74.5s-81 -119.167 -81 -208.5z" />
    <glyph glyph-name="oacute" unicode="&#xf3;" 
d="M233 590h137l172 148h-209zM335 399c27.333 0 48.834 -12.332 64.501 -36.999s23.5 -56.334 23.5 -95.001c0 -48 -7.83301 -83.667 -23.5 -107s-37.834 -35 -66.501 -35c-28 0 -50 11.667 -66 35s-24 59 -24 107c0 16 1.66699 31.667 5 47s8.33301 29.333 15 42
s16.167 23 28.5 31s26.833 12 43.5 12zM35.001 256.001c0 -86.667 27.833 -153.501 83.5 -200.501s127.167 -70.5 214.5 -70.5c42.667 0 82.167 5.83301 118.5 17.5s67.833 29.167 94.5 52.5s47.5 52.833 62.5 88.5s22.5 76.834 22.5 123.501
c0 82 -26.833 147.833 -80.5 197.5s-126.5 74.5 -218.5 74.5c-90 0 -162 -24.833 -216 -74.5s-81 -119.167 -81 -208.5z" />
    <glyph glyph-name="ocircumflex" unicode="&#xf4;" 
d="M133 590h147l56 76l56 -76h148l-122 148h-164zM335 399c27.333 0 48.834 -12.332 64.501 -36.999s23.5 -56.334 23.5 -95.001c0 -48 -7.83301 -83.667 -23.5 -107s-37.834 -35 -66.501 -35c-28 0 -50 11.667 -66 35s-24 59 -24 107c0 16 1.66699 31.667 5 47
s8.33301 29.333 15 42s16.167 23 28.5 31s26.833 12 43.5 12zM35.001 256.001c0 -86.667 27.833 -153.501 83.5 -200.501s127.167 -70.5 214.5 -70.5c42.667 0 82.167 5.83301 118.5 17.5s67.833 29.167 94.5 52.5s47.5 52.833 62.5 88.5s22.5 76.834 22.5 123.501
c0 82 -26.833 147.833 -80.5 197.5s-126.5 74.5 -218.5 74.5c-90 0 -162 -24.833 -216 -74.5s-81 -119.167 -81 -208.5z" />
    <glyph glyph-name="otilde" unicode="&#xf5;" 
d="M452 729c-1.33301 -9.33301 -5.99902 -17.668 -13.999 -25.001s-18.333 -11 -31 -11c-6 0 -12.333 1 -19 3c-10 3.33301 -23 8 -39 14c-18 7.33301 -33 12.666 -45 15.999s-25.667 5 -41 5c-35.333 0 -63.5 -14.167 -84.5 -42.5s-33.833 -61.166 -38.5 -98.499h79v0
c4.66699 14.667 9.83398 25.5 15.501 32.5s14.834 10.5 27.501 10.5c12 0 28 -4.33301 48 -13c16.667 -7.33301 33.167 -13.166 49.5 -17.499s32.166 -6.5 47.499 -6.5c37.333 0 66.166 12.333 86.499 37s33.166 56.667 38.499 96h-80zM335.001 398.998
c27.333 0 48.834 -12.332 64.501 -36.999s23.5 -56.334 23.5 -95.001c0 -48 -7.83301 -83.667 -23.5 -107s-37.834 -35 -66.501 -35c-28 0 -50 11.667 -66 35s-24 59 -24 107c0 16 1.66699 31.667 5 47s8.33301 29.333 15 42s16.167 23 28.5 31s26.833 12 43.5 12z
M35.002 255.999c0 -86.667 27.833 -153.501 83.5 -200.501s127.167 -70.5 214.5 -70.5c42.667 0 82.167 5.83301 118.5 17.5s67.833 29.167 94.5 52.5s47.5 52.833 62.5 88.5s22.5 76.834 22.5 123.501c0 82 -26.833 147.833 -80.5 197.5s-126.5 74.5 -218.5 74.5
c-90 0 -162 -24.833 -216 -74.5s-81 -119.167 -81 -208.5z" />
    <glyph glyph-name="odieresis" unicode="&#xf6;" 
d="M366 596h169v130h-169v-130zM307 596v130h-169v-130h169zM335 399c27.333 0 48.834 -12.332 64.501 -36.999s23.5 -56.334 23.5 -95.001c0 -48 -7.83301 -83.667 -23.5 -107s-37.834 -35 -66.501 -35c-28 0 -50 11.667 -66 35s-24 59 -24 107c0 16 1.66699 31.667 5 47
s8.33301 29.333 15 42s16.167 23 28.5 31s26.833 12 43.5 12zM35.001 256.001c0 -86.667 27.833 -153.501 83.5 -200.501s127.167 -70.5 214.5 -70.5c42.667 0 82.167 5.83301 118.5 17.5s67.833 29.167 94.5 52.5s47.5 52.833 62.5 88.5s22.5 76.834 22.5 123.501
c0 82 -26.833 147.833 -80.5 197.5s-126.5 74.5 -218.5 74.5c-90 0 -162 -24.833 -216 -74.5s-81 -119.167 -81 -208.5z" />
    <glyph glyph-name="divide" unicode="&#xf7;" horiz-adv-x="660" 
d="M582 198v116h-504v-116h504zM388 7v116h-116v-116h116zM388 389v116h-116v-116h116z" />
    <glyph glyph-name="oslash" unicode="&#xf8;" 
d="M254 187c-7.33301 24 -11.001 50.667 -11.001 80c0 16 1.5 31.5 4.5 46.5s8 29 15 42s16.333 23.5 28 31.5s25.834 12 42.501 12c18.667 0 34 -4.66699 46 -14zM412.999 328c6.66699 -24 9.99902 -44.333 9.99902 -61c0 -94.667 -30 -142 -90 -142
c-13.333 0 -26.666 4 -39.999 12zM552.998 548l-49.999 32.999l-41 -64c-40 14.667 -83.333 22 -130 22c-90 0 -162 -24.833 -216 -74.5s-81 -119.167 -81 -208.5c0 -53.333 10.667 -99 32 -137s51 -67.667 89 -89l-47 -74l51 -28l49 77c36 -13.333 77.333 -20 124 -20
c42.667 0 82 5.83301 118 17.5s67.5 29.167 94.5 52.5s48 52.833 63 88.5s22.5 76.834 22.5 123.501c0 31.333 -3.66699 59.333 -11 84s-16.833 46 -28.5 64s-23.834 33 -36.501 45s-25.667 22 -39 30z" />
    <glyph glyph-name="ugrave" unicode="&#xf9;" 
d="M131 738l171 -148h137l-100 148h-208zM618 524l-208 0.000976562v-252c0 -42.667 -6 -74.334 -18 -95.001s-32.333 -31 -61 -31c-26 0 -45 7.16699 -57 21.5s-18 38.833 -18 73.5v283h-208v-319c0 -73.333 16.667 -128.333 50 -165s79.333 -55 138 -55
c44.667 0 81 6.66699 109 20s54.667 37.333 80 72v-77h193v524z" />
    <glyph glyph-name="uacute" unicode="&#xfa;" 
d="M233 590h137l172 148h-209zM618 524l-208 0.000976562v-252c0 -42.667 -6 -74.334 -18 -95.001s-32.333 -31 -61 -31c-26 0 -45 7.16699 -57 21.5s-18 38.833 -18 73.5v283h-208v-319c0 -73.333 16.667 -128.333 50 -165s79.333 -55 138 -55c44.667 0 81 6.66699 109 20
s54.667 37.333 80 72v-77h193v524z" />
    <glyph glyph-name="ucircumflex" unicode="&#xfb;" 
d="M133 590h147l56 76l56 -76h148l-122 148h-164zM618 524l-208 0.000976562v-252c0 -42.667 -6 -74.334 -18 -95.001s-32.333 -31 -61 -31c-26 0 -45 7.16699 -57 21.5s-18 38.833 -18 73.5v283h-208v-319c0 -73.333 16.667 -128.333 50 -165s79.333 -55 138 -55
c44.667 0 81 6.66699 109 20s54.667 37.333 80 72v-77h193v524z" />
    <glyph glyph-name="udieresis" unicode="&#xfc;" 
d="M366 596h169v130h-169v-130zM307 596v130h-169v-130h169zM618 524l-208 0.000976562v-252c0 -42.667 -6 -74.334 -18 -95.001s-32.333 -31 -61 -31c-26 0 -45 7.16699 -57 21.5s-18 38.833 -18 73.5v283h-208v-319c0 -73.333 16.667 -128.333 50 -165s79.333 -55 138 -55
c44.667 0 81 6.66699 109 20s54.667 37.333 80 72v-77h193v524z" />
    <glyph glyph-name="yacute" unicode="&#xfd;" horiz-adv-x="611" 
d="M205 590h137l172 148h-209zM215 524h-209.001l172 -477c6 -16.667 9 -30 9 -40c0 -24.667 -22.667 -37 -68 -37h-21c-8 0.666992 -15.333 1 -22 1v-145c4.66699 0 14 -0.333008 28 -1c26 -2 47.333 -3 64 -3c46.667 0 83.834 3.5 111.501 10.5s50 18.333 67 34
s31 35.667 42 60s24.833 60.5 41.5 108.5l168 489h-200l-91 -323z" />
    <glyph glyph-name="thorn" unicode="&#xfe;" 
d="M44 739v-916.999h208v230c35.333 -44.667 80 -67 134 -67c30.667 0 60.5 5.16699 89.5 15.5s55.167 26.666 78.5 48.999s42 51.666 56 87.999s21 79.166 21 128.499c0 36.667 -4.83301 71.334 -14.5 104.001s-24.334 61.834 -44.001 87.501s-44.334 45.667 -74.001 60
s-63.5 21.5 -101.5 21.5c-33.333 0 -65.666 -8 -96.999 -24s-53.666 -39 -66.999 -69h-2v293h-187zM333 144.001c-26.667 0 -47.502 11.168 -62.502 33.501s-22.5 52.166 -22.5 89.499c0 35.333 7.83301 63.833 23.5 85.5s35.834 32.5 60.501 32.5
c28 0 50.167 -10.167 66.5 -30.5s24.5 -50.833 24.5 -91.5c0 -36 -8.16699 -64.833 -24.5 -86.5s-38.166 -32.5 -65.499 -32.5z" />
    <glyph glyph-name="ydieresis" unicode="&#xff;" horiz-adv-x="611" 
d="M338 596h169v130h-169v-130zM279 596v130h-169v-130h169zM215 524h-209.001l172 -477c6 -16.667 9 -30 9 -40c0 -24.667 -22.667 -37 -68 -37h-21c-8 0.666992 -15.333 1 -22 1v-145c4.66699 0 14 -0.333008 28 -1c26 -2 47.333 -3 64 -3
c46.667 0 83.834 3.5 111.501 10.5s50 18.333 67 34s31 35.667 42 60s24.833 60.5 41.5 108.5l168 489h-200l-91 -323z" />
    <glyph glyph-name="OE" unicode="&#x152;" horiz-adv-x="1000" 
d="M487 0l493.999 -0.000976562v168h-306v113h242v168h-241v103h292v168h-480v-66c-18.667 29.333 -44 50.833 -76 64.5s-66.667 20.5 -104 20.5c-40 0 -78 -7.66699 -114 -23s-68.167 -38.5 -96.5 -69.5s-50.666 -70 -66.999 -117s-24.5 -100.833 -24.5 -161.5
c0 -127.333 26.5 -223.666 79.5 -288.999s126.167 -98 219.5 -98c36 0 70.333 7 103 21s59 34.667 79 62v-64zM348.999 562.999c22 0 40.833 -4.83105 56.5 -14.498s28 -23 37 -40s15.5 -36.667 19.5 -59s6 -46.833 6 -73.5s-1.33301 -52 -4 -76s-8 -47 -16 -69
s-20.5 -39.833 -37.5 -53.5s-38.833 -20.5 -65.5 -20.5c-39.333 0 -69 16.167 -89 48.5s-30 77.5 -30 135.5c0 26 1.5 51.167 4.5 75.5s8.66699 47.666 17 69.999s20.833 40.666 37.5 54.999s38 21.5 64 21.5z" />
    <glyph glyph-name="oe" unicode="&#x153;" horiz-adv-x="1000" 
d="M581 321c1.33301 28 10.998 50.167 28.998 66.5s44 24.5 78 24.5c30.667 0 55.334 -8.33301 74.001 -25s28.334 -38.667 29.001 -66h-210zM959.998 215l-0.000976562 12c0.666992 4 1 8 1 12c0 39.333 -5.83301 77 -17.5 113s-29 68.167 -52 96.5s-51.667 50.5 -86 66.5
s-73.5 24 -117.5 24c-30.667 0 -61.834 -4.5 -93.501 -13.5s-62.834 -23.5 -93.501 -43.5c-25.333 18 -54.666 32 -87.999 42s-67.333 15 -102 15c-37.333 0 -72.5 -5.66699 -105.5 -17s-62.333 -28.5 -88 -51.5s-45.834 -52.5 -60.501 -88.5s-22 -77.667 -22 -125
c0 -82.667 24.333 -148.667 73 -198s116 -74 202 -74c43.333 0 81.333 6.66699 114 20s57.667 30.666 75 51.999c30.667 -23.333 59.834 -41.166 87.501 -53.499s59.167 -18.5 94.5 -18.5c28.667 0 56.834 3.16699 84.501 9.5s52.834 15.833 75.501 28.5
c26 14 47.833 32.167 65.5 54.5s30.5 48.5 38.5 78.5h-189c-2.66699 -13.333 -11.5 -24 -26.5 -32s-33.5 -12 -55.5 -12c-30 0 -53 9.5 -69 28.5s-24 43.833 -24 74.5h379zM331.997 399c31.333 0 53.334 -11.832 66.001 -35.499s19 -57.834 19 -102.501
c0 -18 -0.833008 -34.5 -2.5 -49.5s-5.33398 -29 -11.001 -42s-14.334 -23.667 -26.001 -32s-26.5 -12.5 -44.5 -12.5c-19.333 0 -35.166 3.66699 -47.499 11s-21.5 17.166 -27.5 29.499s-10 25.833 -12 40.5s-3 31.667 -3 51c0 18 1.16699 35 3.5 51s6.5 30.833 12.5 44.5
s15 24.834 27 33.501s27.333 13 46 13z" />
    <glyph glyph-name="Scaron" unicode="&#x160;" horiz-adv-x="722" 
d="M420 934l-56 -75l-56 75h-147l121 -148h164l122 148h-148zM669 511c-4 32 -13.1699 61.832 -27.5029 89.499s-34 51.834 -59 72.501s-56 36.834 -93 48.501s-79.833 17.5 -128.5 17.5c-93.333 0 -168.666 -19.833 -225.999 -59.5s-86 -96.5 -86 -170.5
c0 -40 8.16699 -73.667 24.5 -101s37.833 -49.333 64.5 -66s54 -29.5 82 -38.5s63 -18.5 105 -28.5c48.667 -11.333 83.834 -22 105.501 -32s32.5 -24.333 32.5 -43c0 -16.667 -8.83301 -29.667 -26.5 -39s-41.5 -14 -71.5 -14c-25.333 0 -47.666 6 -66.999 18
c-21.333 12.667 -34.333 31.667 -39 57h-226c1.33301 -32.667 9.83301 -63.5 25.5 -92.5s37.5 -54.667 65.5 -77s61.5 -39.833 100.5 -52.5s81.5 -19 127.5 -19c102.667 0 184.5 21.167 245.5 63.5s91.5 103.833 91.5 184.5c0 38 -8.16699 70 -24.5 96
s-37.666 47.167 -63.999 63.5s-53.333 29 -81 38s-62.5 18.833 -104.5 29.5c-48.667 11.333 -84.167 22.166 -106.5 32.499s-33.5 24.833 -33.5 43.5c0 27.333 25 41 75 41c24 0 44.333 -4.33301 61 -13c19.333 -10 30.666 -26.333 33.999 -49h224z" />
    <glyph glyph-name="scaron" unicode="&#x161;" horiz-adv-x="611" 
d="M364 738l-56 -75l-56 75h-147l121 -148h164l122 148h-148zM33 163c2.66699 -33.333 11.8379 -61.666 27.5049 -84.999s36 -41.833 61 -55.5s52.167 -23.334 81.5 -29.001s60.333 -8.5 93 -8.5c93.333 0 163.666 16.333 210.999 49s71 77.334 71 134.001
c0 28.667 -6.66699 53 -20 73s-30.833 36 -52.5 48s-43.834 21.333 -66.501 28s-51 13.667 -85 21c-38 8 -65.333 15.167 -82 21.5s-25 15.833 -25 28.5s5.16699 22 15.5 28s24.833 9 43.5 9c17.333 0 31.333 -4.33301 42 -13c11.333 -9.33301 18 -22 20 -38h189
c-2.66699 33.333 -12 60.833 -28 82.5s-36.333 38.5 -61 50.5s-51.334 20.333 -80.001 25s-59 7 -91 7c-29.333 0 -58.5 -2.83301 -87.5 -8.5s-55.667 -15.167 -80 -28.5s-43.833 -31.333 -58.5 -54s-22 -50 -22 -82c0 -29.333 6.33301 -53.833 19 -73.5
s29 -35.334 49 -47.001s41.167 -20.5 63.5 -26.5s49.166 -12 80.499 -18c38 -8 65.667 -15.5 83 -22.5s26 -17.833 26 -32.5c0 -16.667 -6.33301 -28.667 -19 -36s-28.334 -11 -47.001 -11c-20 0 -37 5.33301 -51 16c-14.667 11.333 -22 27.333 -22 48h-198z" />
    <glyph glyph-name="Ydieresis" unicode="&#x178;" horiz-adv-x="778" 
d="M422 792h169v130h-169v-130zM363 792v130h-169v-130h169zM507 266l268 454h-260l-124 -244l-124 244h-264l268 -458v-262h236v266z" />
    <glyph glyph-name="florin" unicode="&#x192;" 
d="M622 730l-10.9961 2c-46 10 -80.667 15 -104 15c-33.333 0 -60 -3.33301 -80 -10c-26.667 -9.33301 -48.834 -22.5 -66.501 -39.5s-31.834 -36.5 -42.501 -58.5s-18.667 -44 -24 -66s-11 -50.333 -17 -85l-4 -22h-126v-116h107l-55 -322
c-4 -24 -12.833 -43.167 -26.5 -57.5s-32.5 -21.5 -56.5 -21.5c-3.33301 0.666992 -8 1.66699 -14 3c-14.667 2.66699 -25.334 6 -32.001 10l-22 -127l24 -5c42 -9.33301 73.667 -14 95 -14c6.66699 0 18.334 1.16699 35.001 3.5s28 4.5 34 6.5
c16 5.33301 28.5 10.666 37.5 15.999s19.833 13.333 32.5 24c33.333 29.333 55.666 63.333 66.999 102c13.333 46.667 23 89.334 29 128.001l44 254h129v116h-110l18 95c3.33301 20.667 9.16602 34.5 17.499 41.5s22.833 10.5 43.5 10.5c12.667 0 31.667 -3.33301 57 -10z
" />
    <glyph glyph-name="circumflex" unicode="&#x2c6;" horiz-adv-x="333" 
d="M-34 590h147l56 76l56 -76h148l-122 148h-164z" />
    <glyph glyph-name="tilde" unicode="&#x2dc;" horiz-adv-x="333" 
d="M285 729c-1.33301 -9.33301 -5.99902 -17.668 -13.999 -25.001s-18.333 -11 -31 -11c-6 0 -12.333 1 -19 3c-10 3.33301 -23 8 -39 14c-18 7.33301 -33 12.666 -45 15.999s-25.667 5 -41 5c-35.333 0 -63.5 -14.167 -84.5 -42.5s-33.833 -61.166 -38.5 -98.499h79v0
c4.66699 14.667 9.83398 25.5 15.501 32.5s14.834 10.5 27.501 10.5c12 0 28 -4.33301 48 -13c16.667 -7.33301 33.167 -13.166 49.5 -17.499s32.166 -6.5 47.499 -6.5c37.333 0 66.166 12.333 86.499 37s33.166 56.667 38.499 96h-80z" />
    <glyph glyph-name="endash" unicode="&#x2013;" horiz-adv-x="500" 
d="M500 187v138h-500v-138h500z" />
    <glyph glyph-name="emdash" unicode="&#x2014;" horiz-adv-x="1000" 
d="M1000 187v138h-1000v-138h1000z" />
    <glyph glyph-name="quoteleft" unicode="&#x2018;" horiz-adv-x="278" 
d="M236 739c-24 0 -47.166 -4.66602 -69.499 -13.999s-42 -23 -59 -41s-30.333 -39.5 -40 -64.5s-14.5 -52.833 -14.5 -83.5v-158h183v183h-80c0 29.333 6.33301 51.666 19 66.999c13.333 16 33.666 26 60.999 30v81z" />
    <glyph glyph-name="quoteright" unicode="&#x2019;" horiz-adv-x="278" 
d="M42 359c24 0 47 4.66602 69 13.999s41.667 23 59 41s30.833 39.5 40.5 64.5s14.5 52.833 14.5 83.5v158h-183v-183h80c0 -27.333 -6.33301 -49.333 -19 -66c-12 -15.333 -32.333 -25.666 -61 -30.999v-81z" />
    <glyph glyph-name="quotesinglbase" unicode="&#x201a;" horiz-adv-x="278" 
d="M42 -178c24.667 0 48 4.66699 70 14s41.5 22.833 58.5 40.5s30.333 39.167 40 64.5s14.5 53.333 14.5 84v158h-183v-183h80c0 -27.333 -6.33301 -49.333 -19 -66c-12 -16 -32.333 -26.333 -61 -31v-81z" />
    <glyph glyph-name="quotedblleft" unicode="&#x201c;" horiz-adv-x="500" 
d="M471 739c-24 0 -47.166 -4.66602 -69.499 -13.999s-42 -23 -59 -41s-30.333 -39.5 -40 -64.5s-14.5 -52.833 -14.5 -83.5v-158h183v183h-80c0 29.333 6.33301 51.666 19 66.999c13.333 16 33.666 26 60.999 30v81zM224.001 739.001
c-24 0 -47.166 -4.66602 -69.499 -13.999s-42 -23 -59 -41s-30.333 -39.5 -40 -64.5s-14.5 -52.833 -14.5 -83.5v-158h183v183h-80c0 29.333 6.33301 51.666 19 66.999c13.333 16 33.666 26 60.999 30v81z" />
    <glyph glyph-name="quotedblright" unicode="&#x201d;" horiz-adv-x="500" 
d="M276 359c24 0 47 4.66602 69 13.999s41.667 23 59 41s30.833 39.5 40.5 64.5s14.5 52.833 14.5 83.5v158h-183v-183h80c0 -27.333 -6.33301 -49.333 -19 -66c-12 -15.333 -32.333 -25.666 -61 -30.999v-81zM29 358.999c24 0 47 4.66602 69 13.999s41.667 23 59 41
s30.833 39.5 40.5 64.5s14.5 52.833 14.5 83.5v158h-183v-183h80c0 -27.333 -6.33301 -49.333 -19 -66c-12 -15.333 -32.333 -25.666 -61 -30.999v-81z" />
    <glyph glyph-name="quotedblbase" unicode="&#x201e;" horiz-adv-x="500" 
d="M276 -178c24.667 0 48 4.66699 70 14s41.5 22.833 58.5 40.5s30.333 39.167 40 64.5s14.5 53.333 14.5 84v158h-183v-183h80c0 -27.333 -6.33301 -49.333 -19 -66c-12 -16 -32.333 -26.333 -61 -31v-81zM29 -178c24.667 0 48 4.66699 70 14s41.5 22.833 58.5 40.5
s30.333 39.167 40 64.5s14.5 53.333 14.5 84v158h-183v-183h80c0 -27.333 -6.33301 -49.333 -19 -66c-12 -16 -32.333 -26.333 -61 -31v-81z" />
    <glyph glyph-name="dagger" unicode="&#x2020;" 
d="M232 514h-150v-158h150v-534h202v534h150v158h-150v206h-202v-206z" />
    <glyph glyph-name="daggerdbl" unicode="&#x2021;" 
d="M82 540v-158h150v-218h-150v-158h150v-184h192v184h160v158h-160v218h160v158h-160v180h-192v-180h-150z" />
    <glyph glyph-name="bullet" unicode="&#x2022;" horiz-adv-x="500" 
d="M418 361c0 22.667 -4.33008 44.334 -12.9971 65.001s-20.834 38.667 -36.501 54s-33.834 27.333 -54.501 36s-42.334 13 -65.001 13s-44.334 -4.33301 -65.001 -13s-38.667 -20.667 -54 -36s-27.333 -33.333 -36 -54s-13 -42.334 -13 -65.001s4.33301 -44.334 13 -65.001
s20.667 -38.834 36 -54.501s33.333 -27.834 54 -36.501s42.334 -13 65.001 -13c23.333 0 45.166 4.33301 65.499 13s38.333 20.834 54 36.501s27.834 33.834 36.501 54.501s13 42.334 13 65.001z" />
    <glyph glyph-name="ellipsis" unicode="&#x2026;" horiz-adv-x="1000" 
d="M273 0v206h-212v-206h212zM939 0v206h-212v-206h212zM606 0v206h-212v-206h212z" />
    <glyph glyph-name="perthousand" unicode="&#x2030;" horiz-adv-x="1000" 
d="M469 182c12.667 0 23.667 -4.83301 33 -14.5s14 -20.5 14 -32.5s-4.66699 -22.833 -14 -32.5s-20.333 -14.5 -33 -14.5c-12 0 -23 4.66699 -33 14s-15 20.333 -15 33s5 23.667 15 33s21 14 33 14zM469 302c-22 0 -43.001 -4.33398 -63.001 -13.001
s-38 -20.834 -54 -36.501s-28.5 -33.5 -37.5 -53.5s-13.5 -41.333 -13.5 -64c0 -22 4.33301 -43 13 -63s20.667 -37.833 36 -53.5s33 -28 53 -37s41 -13.5 63 -13.5c23.333 0 45.333 4.33301 66 13s38.834 20.5 54.501 35.5s27.834 32.833 36.501 53.5s13 42.334 13 65.001
c0 22 -4.33301 43.167 -13 63.5s-20.834 38.333 -36.501 54s-33.667 27.834 -54 36.501s-41.5 13 -63.5 13zM839.999 301.999c-22 0 -43.001 -4.33398 -63.001 -13.001s-38 -20.834 -54 -36.501s-28.5 -33.5 -37.5 -53.5s-13.5 -41.333 -13.5 -64c0 -22 4.33301 -43 13 -63
s20.667 -37.833 36 -53.5s33 -28 53 -37s41 -13.5 63 -13.5c23.333 0 45.333 4.33301 66 13s38.834 20.5 54.501 35.5s27.834 32.833 36.501 53.5s13 42.334 13 65.001c0 22 -4.33301 43.167 -13 63.5s-20.834 38.333 -36.501 54s-33.667 27.834 -54 36.501
s-41.5 13 -63.5 13zM839.998 181.998c12.667 0 23.667 -4.83301 33 -14.5s14 -20.5 14 -32.5s-4.66699 -22.833 -14 -32.5s-20.333 -14.5 -33 -14.5c-12 0 -23 4.66699 -33 14s-15 20.333 -15 33s5 23.667 15 33s21 14 33 14zM160.998 750.998
c-22 0 -43.001 -4.33398 -63.001 -13.001s-38 -20.834 -54 -36.501s-28.5 -33.5 -37.5 -53.5s-13.5 -41.333 -13.5 -64c0 -22 4.33301 -43 13 -63s20.667 -37.833 36 -53.5s33 -28 53 -37s41 -13.5 63 -13.5c23.333 0 45.333 4.33301 66 13s38.834 20.5 54.501 35.5
s27.834 32.833 36.501 53.5s13 42.334 13 65.001c0 22 -4.33301 43.167 -13 63.5s-20.834 38.333 -36.501 54s-33.667 27.834 -54 36.501s-41.5 13 -63.5 13zM160.997 630.997c12.667 0 23.667 -4.83301 33 -14.5s14 -20.5 14 -32.5s-4.66699 -22.833 -14 -32.5
s-20.333 -14.5 -33 -14.5c-12 0 -23 4.66699 -33 14s-15 20.333 -15 33s5 23.667 15 33s21 14 33 14zM480.997 737.997l-420 -758h85l420 758h-85z" />
    <glyph glyph-name="guilsinglleft" unicode="&#x2039;" horiz-adv-x="333" 
d="M258 64v129l-101 59l101 65v131l-183 -120v-146z" />
    <glyph glyph-name="guilsinglright" unicode="&#x203a;" horiz-adv-x="333" 
d="M75 448v-129l101 -59l-101 -65v-131l183 120v146z" />
    <glyph glyph-name="trademark" unicode="&#x2122;" horiz-adv-x="950" 
d="M886 720h-142l-91 -239l-91 239h-142v-404h88v326h2l117 -326h52l117 326h2v-326h88v404zM371 720h-343v-78h123v-326h97v326h123v78z" />
    </font>
</defs>
</svg>
